<svg xmlns="http://www.w3.org/2000/svg" width="170" height="44" viewBox="0 0 170 44" role="img" aria-label="Correo"><title>Correo</title><style>
.u{animation:rise .3s cubic-bezier(.23,1,.32,1) backwards}
.f{animation:fade .3s cubic-bezier(.23,1,.32,1) backwards}
.d{stroke-dasharray:1;animation:draw .7s cubic-bezier(.23,1,.32,1) backwards}
.p{stroke-dasharray:1;animation:draw .9s cubic-bezier(.77,0,.175,1) backwards}
.cur{transform-box:fill-box;transform-origin:right;transform:scaleX(0);animation:curtain .7s cubic-bezier(.23,1,.32,1) backwards}
.cursor{opacity:0;animation:cursor .7s cubic-bezier(.23,1,.32,1) backwards}
.pulse{animation:pulse 2.4s cubic-bezier(.77,0,.175,1) infinite}
.led{animation:led 4s steps(1,end) 3s infinite}
@keyframes rise{from{opacity:0;transform:translateY(8px)}}
@keyframes fade{from{opacity:0}}
@keyframes draw{from{stroke-dashoffset:1}}
@keyframes curtain{from{transform:scaleX(1)}}
@keyframes cursor{from{opacity:1;transform:translateX(0)}to{opacity:1;transform:translateX(592px)}}
@keyframes pulse{50%{opacity:.25}}
@keyframes led{0%{opacity:1}5%{opacity:.15}10%{opacity:1}15%{opacity:.15}20%{opacity:1}}
@media (prefers-reduced-motion:reduce){.u{animation-name:fade}.d,.p,.cur,.cursor,.pulse,.led{animation:none}}
</style><rect x=".75" y=".75" width="168.5" height="42.5" fill="#FFFFFF"/><path class="d" pathLength="1" style="animation-delay:0.68s;animation-duration:.9s" d="M0.8 0.8H169.2V43.2H0.8Z" stroke="#1F2328" stroke-width="1.5" fill="none"/><g transform="translate(18 14)" fill="none" stroke="#1F2328" stroke-width="1.6"><path class="d" pathLength="1" style="animation-delay:0.83s" d="M.8 .8H17.2V15.2H.8Z"/><path class="d" pathLength="1" style="animation-delay:1.03s" d="M1 1.5l8 6.5 8-6.5"/></g><g class="u" style="animation-delay:0.93s"><path fill="#1F2328" d="M52.2 27.2Q50.4 27.2 49.6 25.9Q48.8 24.7 48.8 22.5Q48.8 20.2 49.6 19Q50.4 17.8 52.2 17.8Q52.8 17.8 53.3 17.9Q53.8 18.1 54.1 18.4Q54.5 18.7 54.7 19.1Q55 19.6 55.1 20L53.8 20.5Q53.7 20.1 53.6 19.9Q53.5 19.6 53.3 19.4Q53.1 19.2 52.8 19.1Q52.5 19 52.1 19Q51.2 19 50.7 19.7Q50.3 20.4 50.3 21.7V23.2Q50.3 24.5 50.7 25.2Q51.2 25.9 52.1 25.9Q52.5 25.9 52.8 25.8Q53.1 25.7 53.3 25.5Q53.5 25.3 53.6 25.1Q53.7 24.8 53.8 24.5L55.1 24.9Q55 25.4 54.7 25.8Q54.5 26.2 54.1 26.5Q53.8 26.8 53.3 27Q52.8 27.2 52.2 27.2ZM59.7 27.2Q58.8 27.2 58.2 26.8Q57.6 26.5 57.2 25.9Q56.8 25.3 56.6 24.5Q56.4 23.6 56.4 22.5Q56.4 21.4 56.6 20.5Q56.8 19.6 57.2 19Q57.6 18.4 58.2 18.1Q58.8 17.8 59.7 17.8Q60.6 17.8 61.2 18.1Q61.8 18.4 62.2 19Q62.6 19.6 62.8 20.5Q63 21.4 63 22.5Q63 23.6 62.8 24.5Q62.6 25.3 62.2 25.9Q61.8 26.5 61.2 26.8Q60.6 27.2 59.7 27.2ZM59.7 25.9Q60.7 25.9 61.1 25.2Q61.5 24.5 61.5 23.2V21.7Q61.5 20.4 61.1 19.7Q60.7 19 59.7 19Q58.7 19 58.3 19.7Q57.9 20.4 57.9 21.7V23.2Q57.9 24.5 58.3 25.2Q58.7 25.9 59.7 25.9ZM66.1 27H64.7V17.9H68.1Q69.4 17.9 70.1 18.7Q70.8 19.4 70.8 20.7Q70.8 21.7 70.2 22.4Q69.7 23 68.8 23.2L70.9 27H69.3L67.3 23.3H66.1V27ZM67.9 22.2Q69.2 22.2 69.2 20.9V20.4Q69.2 19.1 67.9 19.1H66.1V22.2H67.9ZM73.9 27H72.5V17.9H75.9Q77.2 17.9 77.9 18.7Q78.6 19.4 78.6 20.7Q78.6 21.7 78 22.4Q77.5 23 76.6 23.2L78.7 27H77.1L75.1 23.3H73.9V27ZM75.7 22.2Q77 22.2 77 20.9V20.4Q77 19.1 75.7 19.1H73.9V22.2H75.7ZM80.3 27V17.9H86V19.1H81.8V21.8H85.8V23H81.8V25.8H86V27H80.3ZM90.9 27.2Q90 27.2 89.4 26.8Q88.8 26.5 88.4 25.9Q88 25.3 87.8 24.5Q87.6 23.6 87.6 22.5Q87.6 21.4 87.8 20.5Q88 19.6 88.4 19Q88.8 18.4 89.4 18.1Q90 17.8 90.9 17.8Q91.8 17.8 92.4 18.1Q93 18.4 93.4 19Q93.8 19.6 94 20.5Q94.2 21.4 94.2 22.5Q94.2 23.6 94 24.5Q93.8 25.3 93.4 25.9Q93 26.5 92.4 26.8Q91.8 27.2 90.9 27.2ZM90.9 25.9Q91.9 25.9 92.3 25.2Q92.7 24.5 92.7 23.2V21.7Q92.7 20.4 92.3 19.7Q91.9 19 90.9 19Q89.9 19 89.5 19.7Q89.1 20.4 89.1 21.7V23.2Q89.1 24.5 89.5 25.2Q89.9 25.9 90.9 25.9Z"/></g></svg>
