<svg xmlns="http://www.w3.org/2000/svg" width="460" height="240" viewBox="0 0 460 240" role="img" aria-label="Enfermedades del mango: Cascada de detector y clasificador, con auditoría de fuga de datos. Semillero TI, Universidad Libre. Plataforma: Visión por computador. Stack: Python, YOLO26n, YOLO11n-cls. Estado: Artículo, versión revisada. Exactitud del clasificador: 0,909."><title>Enfermedades del mango: Cascada de detector y clasificador, con auditoría de fuga de datos. Semillero TI, Universidad Libre. Plataforma: Visión por computador. Stack: Python, YOLO26n, YOLO11n-cls. Estado: Artículo, versión revisada. Exactitud del clasificador: 0,909.</title><style>
.u{animation:rise .3s cubic-bezier(.23,1,.32,1) backwards}
.f{animation:fade .3s cubic-bezier(.23,1,.32,1) backwards}
.d{stroke-dasharray:1;animation:draw .7s cubic-bezier(.23,1,.32,1) backwards}
.p{stroke-dasharray:1;animation:draw .9s cubic-bezier(.77,0,.175,1) backwards}
.cur{transform-box:fill-box;transform-origin:right;transform:scaleX(0);animation:curtain .7s cubic-bezier(.23,1,.32,1) backwards}
.cursor{opacity:0;animation:cursor .7s cubic-bezier(.23,1,.32,1) backwards}
.pulse{animation:pulse 2.4s cubic-bezier(.77,0,.175,1) infinite}
.led{animation:led 4s steps(1,end) 3s infinite}
@keyframes rise{from{opacity:0;transform:translateY(8px)}}
@keyframes fade{from{opacity:0}}
@keyframes draw{from{stroke-dashoffset:1}}
@keyframes curtain{from{transform:scaleX(1)}}
@keyframes cursor{from{opacity:1;transform:translateX(0)}to{opacity:1;transform:translateX(592px)}}
@keyframes pulse{50%{opacity:.25}}
@keyframes led{0%{opacity:1}5%{opacity:.15}10%{opacity:1}15%{opacity:.15}20%{opacity:1}}
@media (prefers-reduced-motion:reduce){.u{animation-name:fade}.d,.p,.cur,.cursor,.pulse,.led{animation:none}}
</style><rect width="460" height="240" fill="#FFFFFF"/><g class="f" style="animation-delay:0.18s"><rect x="1" y="1" width="458" height="42" fill="#F6F8FA"/></g><path class="d" pathLength="1" style="animation-delay:0.08s;animation-duration:.9s" d="M0.8 0.8H459.2V239.2H0.8Z" stroke="#D0D7DE" stroke-width="1.5" fill="none"/><g class="u" style="animation-delay:0.23s"><rect x="16" y="16" width="10" height="10" fill="#FF4F00"/><path fill="#1F2328" d="M35.2 28V15.4H43V17.7H37.8V20.5H42.2V22.8H37.8V25.8H43V28H35.2ZM48.5 21.3 47.7 19.3H47.4L47.5 21.4V28H45.1V15.4H47.9L51.1 22.2L51.9 24.2H52.2L52 22.1V15.4H54.4V28H51.6L48.5 21.3ZM56.9 28V15.4H64.4V17.7H59.5V20.5H63.7V22.8H59.5V28H56.9ZM66.4 28V15.4H74.2V17.7H69V20.5H73.4V22.8H69V25.8H74.2V28H66.4ZM78.8 28H76.3V15.4H81.7Q83.4 15.4 84.3 16.5Q85.2 17.6 85.2 19.3Q85.2 20.7 84.6 21.7Q84.1 22.6 83.1 23L85.3 28H82.5L80.5 23.2H78.8V28ZM81.4 21.1Q81.9 21.1 82.2 20.8Q82.5 20.6 82.5 19.9V18.9Q82.5 18.2 82.2 17.9Q81.9 17.7 81.4 17.7H78.8V21.1H81.4ZM95.6 21.4 95.8 19.3H95.5L94.7 21.3L92.6 25.9L90.6 21.3L89.8 19.3H89.5L89.7 21.4V28H87.2V15.4H89.9L91.7 19.2L92.6 21.9H92.8L93.7 19.2L95.4 15.4H98.1V28H95.6V21.4ZM100.5 28V15.4H108.3V17.7H103.1V20.5H107.5V22.8H103.1V25.8H108.3V28H100.5ZM110.4 15.4H114.8Q116 15.4 116.9 15.8Q117.8 16.1 118.4 16.9Q119 17.6 119.4 18.8Q119.7 20 119.7 21.7Q119.7 23.4 119.4 24.6Q119 25.8 118.4 26.5Q117.8 27.3 116.9 27.6Q116 28 114.8 28H110.4V15.4ZM114.8 25.8Q117 25.8 117 23.2V20.2Q117 17.7 114.8 17.7H113V25.8H114.8ZM128.1 28 127.3 24.9H123.5L122.7 28H120.2L123.8 15.4H127.1L130.6 28H128.1ZM125.9 20 125.5 17.8H125.2L124.8 20L124.1 22.9H126.7L125.9 20ZM132.2 15.4H136.6Q137.8 15.4 138.7 15.8Q139.6 16.1 140.2 16.9Q140.8 17.6 141.2 18.8Q141.5 20 141.5 21.7Q141.5 23.4 141.2 24.6Q140.8 25.8 140.2 26.5Q139.6 27.3 138.7 27.6Q137.8 28 136.6 28H132.2V15.4ZM136.6 25.8Q138.8 25.8 138.8 23.2V20.2Q138.8 17.7 136.6 17.7H134.8V25.8H136.6ZM143.5 28V15.4H151.3V17.7H146.1V20.5H150.5V22.8H146.1V25.8H151.3V28H143.5ZM157.1 28.2Q154.3 28.2 152.7 26.2L154.3 24.6Q155.4 26 157.2 26Q159 26 159 24.4Q159 23.7 158.6 23.4Q158.3 23 157.6 22.9L156.5 22.7Q154.7 22.3 153.9 21.4Q153.1 20.5 153.1 19Q153.1 17.1 154.2 16.2Q155.2 15.2 157.3 15.2Q160 15.2 161.4 16.9L159.7 18.6Q159.3 18 158.7 17.7Q158.1 17.5 157.3 17.5Q156.4 17.5 156 17.8Q155.7 18.1 155.7 18.8Q155.7 19.5 156 19.8Q156.3 20.1 156.9 20.3L158.1 20.5Q159 20.7 159.6 21Q160.3 21.2 160.7 21.7Q161.2 22.1 161.3 22.7Q161.5 23.3 161.5 24.1Q161.5 26.1 160.4 27.2Q159.3 28.2 157.1 28.2ZM167.3 15.4H171.7Q172.8 15.4 173.7 15.8Q174.6 16.1 175.3 16.9Q175.9 17.6 176.2 18.8Q176.6 20 176.6 21.7Q176.6 23.4 176.2 24.6Q175.9 25.8 175.3 26.5Q174.6 27.3 173.7 27.6Q172.8 28 171.7 28H167.3V15.4ZM171.7 25.8Q173.8 25.8 173.8 23.2V20.2Q173.8 17.7 171.7 17.7H169.8V25.8H171.7ZM178.6 28V15.4H186.4V17.7H181.2V20.5H185.6V22.8H181.2V25.8H186.4V28H178.6ZM188.5 28V15.4H191V25.8H195.3V28H188.5ZM209.3 21.4 209.5 19.3H209.2L208.4 21.3L206.3 25.9L204.3 21.3L203.5 19.3H203.2L203.3 21.4V28H200.9V15.4H203.6L205.3 19.2L206.3 21.9H206.5L207.4 19.2L209.1 15.4H211.8V28H209.3V21.4ZM221.2 28 220.4 24.9H216.6L215.8 28H213.4L216.9 15.4H220.2L223.8 28H221.2ZM219 20 218.6 17.8H218.4L218 20L217.2 22.9H219.8L219 20ZM228.7 21.3 227.9 19.3H227.6L227.8 21.4V28H225.3V15.4H228.1L231.3 22.2L232.1 24.2H232.4L232.3 22.1V15.4H234.7V28H231.9L228.7 21.3ZM244.3 26H244Q243.9 27 243.1 27.6Q242.4 28.2 241.2 28.2Q240.3 28.2 239.5 27.9Q238.6 27.5 238 26.8Q237.4 26 237 24.8Q236.7 23.6 236.7 21.8Q236.7 20 237 18.7Q237.4 17.5 238 16.7Q238.7 15.9 239.6 15.6Q240.5 15.2 241.7 15.2Q243.4 15.2 244.5 15.9Q245.6 16.7 246.2 18.1L244.1 19.3Q243.9 18.5 243.3 18Q242.7 17.5 241.6 17.5Q240.6 17.5 240 18.1Q239.4 18.8 239.4 20.1V23.4Q239.4 24.7 240 25.3Q240.6 25.9 241.7 25.9Q242.7 25.9 243.3 25.4Q244 24.9 244 24V23.2H241.9V21.1H246.4V28H244.3V26ZM253.3 28.2Q252.2 28.2 251.2 27.9Q250.3 27.5 249.7 26.7Q249 25.9 248.7 24.7Q248.3 23.5 248.3 21.7Q248.3 20 248.7 18.7Q249 17.5 249.7 16.7Q250.3 15.9 251.2 15.6Q252.2 15.2 253.3 15.2Q254.4 15.2 255.3 15.6Q256.3 15.9 256.9 16.7Q257.6 17.5 257.9 18.7Q258.3 20 258.3 21.7Q258.3 23.5 257.9 24.7Q257.6 25.9 256.9 26.7Q256.3 27.5 255.3 27.9Q254.4 28.2 253.3 28.2ZM253.3 25.9Q254.4 25.9 255 25.3Q255.5 24.7 255.5 23.4V20.1Q255.5 18.8 255 18.1Q254.4 17.5 253.3 17.5Q252.2 17.5 251.6 18.1Q251 18.8 251 20.1V23.4Q251 24.7 251.6 25.3Q252.2 25.9 253.3 25.9Z"/></g><g class="f" style="animation-delay:0.28s"><path fill="#59636E" d="M293.5 18.7V24.1Q293.5 24.6 293.4 24.9Q293.2 25.3 292.9 25.6Q292.6 25.8 292.2 26Q291.8 26.1 291.4 26.1Q290.5 26.1 290 25.7Q289.4 25.3 289.3 24.5L290.1 24.3Q290.2 24.5 290.3 24.7Q290.3 24.9 290.5 25Q290.7 25.2 290.9 25.3Q291.1 25.3 291.4 25.3Q292 25.3 292.3 25Q292.7 24.7 292.7 23.9V19.4H290V18.7H293.5ZM296.5 18.7V23.1Q296.5 23.6 296.6 24Q296.6 24.4 296.7 24.7Q296.9 25 297.1 25.2Q297.4 25.4 297.9 25.4Q298.5 25.4 298.8 25.2Q299 25 299.2 24.7Q299.3 24.4 299.3 24Q299.4 23.6 299.4 23.1V18.7H300.3V22.9Q300.3 23.7 300.2 24.3Q300.1 24.9 299.9 25.3Q299.6 25.7 299.2 25.9Q298.7 26.1 297.9 26.1Q297.2 26.1 296.7 25.9Q296.3 25.7 296 25.3Q295.8 24.9 295.7 24.3Q295.6 23.7 295.6 22.9V18.7H296.5ZM302.8 19.8H302.7V26H301.9V18.7H303.2L305.7 24.8H305.8V18.7H306.6V26H305.3L302.8 19.8ZM308.3 26V25.3H310.1V19.4H308.3V18.7H312.8V19.4H311V25.3H312.8V26H308.3ZM316.8 26.1Q316.2 26.1 315.7 25.9Q315.2 25.6 314.9 25.1Q314.6 24.6 314.4 23.9Q314.3 23.2 314.3 22.3Q314.3 21.4 314.4 20.7Q314.6 20 314.9 19.5Q315.2 19.1 315.7 18.8Q316.2 18.5 316.8 18.5Q317.5 18.5 318 18.8Q318.5 19.1 318.8 19.5Q319.1 20 319.3 20.7Q319.4 21.4 319.4 22.3Q319.4 23.2 319.3 23.9Q319.1 24.6 318.8 25.1Q318.5 25.6 318 25.9Q317.5 26.1 316.8 26.1ZM316.8 25.4Q317.3 25.4 317.6 25.2Q317.9 25 318.1 24.7Q318.3 24.4 318.4 23.9Q318.5 23.5 318.5 22.9V21.7Q318.5 21.2 318.4 20.7Q318.3 20.3 318.1 20Q317.9 19.7 317.6 19.5Q317.3 19.3 316.8 19.3Q316.4 19.3 316.1 19.5Q315.8 19.7 315.6 20Q315.4 20.3 315.3 20.7Q315.2 21.2 315.2 21.7V22.9Q315.2 23.5 315.3 23.9Q315.4 24.4 315.6 24.7Q315.8 25 316.1 25.2Q316.4 25.4 316.8 25.4ZM321.8 26H320.9V18.7H323.6Q324.6 18.7 325.2 19.2Q325.7 19.8 325.7 20.8Q325.7 21.7 325.2 22.2Q324.8 22.7 323.9 22.8L325.8 26H324.8L323 22.9H321.8V26ZM323.6 22.1Q324.1 22.1 324.5 21.8Q324.8 21.6 324.8 21.1V20.5Q324.8 20 324.5 19.7Q324.1 19.4 323.6 19.4H321.8V22.1H323.6ZM328.1 26H327.2V18.7H329.9Q330.9 18.7 331.5 19.2Q332 19.8 332 20.8Q332 21.7 331.5 22.2Q331.1 22.7 330.2 22.8L332.1 26H331.1L329.3 22.9H328.1V26ZM329.9 22.1Q330.4 22.1 330.8 21.8Q331.1 21.6 331.1 21.1V20.5Q331.1 20 330.8 19.7Q330.4 19.4 329.9 19.4H328.1V22.1H329.9ZM333.6 18.7H335.6Q337 18.7 337.7 19.6Q338.3 20.5 338.3 22.3Q338.3 24.2 337.7 25.1Q337 26 335.6 26H333.6V18.7ZM335.6 25.2Q336.5 25.2 336.9 24.6Q337.4 24 337.4 22.9V21.8Q337.4 20.7 336.9 20Q336.5 19.4 335.6 19.4H334.5V25.2H335.6ZM342 26.1Q341 26.1 340.4 25.8Q339.8 25.4 339.4 24.8L340 24.3Q340.4 24.8 340.9 25.1Q341.4 25.4 342.1 25.4Q342.9 25.4 343.3 25Q343.7 24.6 343.7 24Q343.7 23.4 343.4 23.1Q343.1 22.8 342.3 22.7L341.5 22.6Q341 22.5 340.6 22.3Q340.3 22.1 340 21.8Q339.8 21.6 339.7 21.2Q339.6 20.9 339.6 20.6Q339.6 19.6 340.3 19.1Q340.9 18.5 342.1 18.5Q343 18.5 343.6 18.8Q344.2 19.1 344.5 19.7L343.9 20.2Q343.6 19.8 343.2 19.6Q342.7 19.3 342.1 19.3Q341.3 19.3 340.9 19.6Q340.5 19.9 340.5 20.6Q340.5 21.1 340.8 21.4Q341.1 21.7 341.9 21.8L342.7 21.9Q343.2 22 343.6 22.2Q344 22.4 344.2 22.7Q344.4 22.9 344.5 23.3Q344.6 23.6 344.6 24Q344.6 25 343.9 25.5Q343.3 26.1 342 26.1ZM347 26H346.1V18.7H348.8Q349.8 18.7 350.4 19.2Q350.9 19.8 350.9 20.8Q350.9 21.7 350.4 22.2Q350 22.7 349.1 22.8L351 26H350L348.2 22.9H347V26ZM348.8 22.1Q349.3 22.1 349.7 21.8Q350 21.6 350 21.1V20.5Q350 20 349.7 19.7Q349.3 19.4 348.8 19.4H347V22.1H348.8ZM352.4 27.4 356.1 18H356.9L353.2 27.4H352.4ZM362.3 25.1H362.2Q361.7 26.1 360.6 26.1Q359.6 26.1 359 25.4Q358.4 24.6 358.4 23.3Q358.4 21.9 359 21.2Q359.6 20.5 360.6 20.5Q361.7 20.5 362.2 21.5H362.3V18.2H363.1V26H362.3V25.1ZM360.9 25.4Q361.2 25.4 361.4 25.3Q361.7 25.2 361.9 25.1Q362 24.9 362.2 24.7Q362.3 24.5 362.3 24.3V22.3Q362.3 22 362.2 21.8Q362 21.6 361.9 21.5Q361.7 21.3 361.4 21.3Q361.2 21.2 360.9 21.2Q360.1 21.2 359.7 21.6Q359.3 22.1 359.3 22.8V23.8Q359.3 24.5 359.7 24.9Q360.1 25.4 360.9 25.4ZM367.3 26.1Q366.8 26.1 366.3 25.9Q365.8 25.7 365.5 25.4Q365.2 25 365 24.5Q364.8 23.9 364.8 23.3Q364.8 22.7 365 22.1Q365.2 21.6 365.5 21.2Q365.8 20.9 366.3 20.7Q366.7 20.5 367.3 20.5Q367.8 20.5 368.3 20.7Q368.7 20.9 369 21.2Q369.4 21.6 369.5 22Q369.7 22.5 369.7 23.1V23.5H365.7V23.8Q365.7 24.1 365.8 24.4Q365.9 24.7 366.1 24.9Q366.3 25.2 366.7 25.3Q367 25.4 367.3 25.4Q367.9 25.4 368.3 25.1Q368.7 24.9 368.9 24.5L369.5 24.9Q369.3 25.4 368.7 25.8Q368.2 26.1 367.3 26.1ZM367.3 21.1Q366.9 21.1 366.7 21.3Q366.4 21.4 366.1 21.6Q365.9 21.8 365.8 22.1Q365.7 22.4 365.7 22.8V22.9H368.8V22.8Q368.8 22.4 368.7 22.1Q368.6 21.8 368.4 21.6Q368.2 21.4 367.9 21.3Q367.6 21.1 367.3 21.1ZM373.8 26Q373.2 26 372.9 25.7Q372.6 25.3 372.6 24.8V21.3H370.8V20.6H372.2Q372.4 20.6 372.5 20.5Q372.6 20.4 372.6 20.1V18.7H373.5V20.6H375.9V21.3H373.5V25.3H375.9V26H373.8ZM379.9 26.1Q379.4 26.1 378.9 25.9Q378.4 25.7 378.1 25.4Q377.8 25 377.6 24.5Q377.4 23.9 377.4 23.3Q377.4 22.7 377.6 22.1Q377.8 21.6 378.1 21.2Q378.4 20.9 378.9 20.7Q379.3 20.5 379.9 20.5Q380.4 20.5 380.9 20.7Q381.3 20.9 381.6 21.2Q382 21.6 382.1 22Q382.3 22.5 382.3 23.1V23.5H378.3V23.8Q378.3 24.1 378.4 24.4Q378.5 24.7 378.7 24.9Q378.9 25.2 379.3 25.3Q379.6 25.4 379.9 25.4Q380.5 25.4 380.9 25.1Q381.3 24.9 381.5 24.5L382.1 24.9Q381.9 25.4 381.3 25.8Q380.8 26.1 379.9 26.1ZM379.9 21.1Q379.5 21.1 379.3 21.3Q379 21.4 378.7 21.6Q378.5 21.8 378.4 22.1Q378.3 22.4 378.3 22.8V22.9H381.4V22.8Q381.4 22.4 381.3 22.1Q381.2 21.8 381 21.6Q380.8 21.4 380.5 21.3Q380.2 21.1 379.9 21.1ZM386.3 26.1Q385.8 26.1 385.3 25.9Q384.8 25.7 384.5 25.3Q384.2 25 384 24.5Q383.9 23.9 383.9 23.3Q383.9 22.7 384.1 22.1Q384.2 21.6 384.5 21.2Q384.8 20.9 385.3 20.7Q385.8 20.5 386.3 20.5Q387.1 20.5 387.6 20.8Q388.1 21.1 388.3 21.7L387.7 22.1Q387.5 21.6 387.2 21.4Q386.8 21.2 386.3 21.2Q386 21.2 385.7 21.3Q385.4 21.4 385.2 21.6Q385 21.9 384.9 22.2Q384.8 22.5 384.8 22.8V23.8Q384.8 24.1 384.9 24.4Q385 24.7 385.2 24.9Q385.4 25.2 385.7 25.3Q386 25.4 386.3 25.4Q386.9 25.4 387.3 25.1Q387.6 24.9 387.8 24.5L388.4 24.9Q388.2 25.4 387.7 25.8Q387.2 26.1 386.3 26.1ZM392.6 26.1Q392.1 26.1 391.6 25.9Q391.1 25.7 390.8 25.3Q390.5 25 390.3 24.5Q390.2 23.9 390.2 23.3Q390.2 22.7 390.4 22.1Q390.5 21.6 390.8 21.2Q391.1 20.9 391.6 20.7Q392.1 20.5 392.6 20.5Q393.4 20.5 393.9 20.8Q394.4 21.1 394.6 21.7L394 22.1Q393.8 21.6 393.5 21.4Q393.1 21.2 392.6 21.2Q392.3 21.2 392 21.3Q391.7 21.4 391.5 21.6Q391.3 21.9 391.2 22.2Q391.1 22.5 391.1 22.8V23.8Q391.1 24.1 391.2 24.4Q391.3 24.7 391.5 24.9Q391.7 25.2 392 25.3Q392.3 25.4 392.6 25.4Q393.2 25.4 393.6 25.1Q393.9 24.9 394.1 24.5L394.7 24.9Q394.5 25.4 394 25.8Q393.5 26.1 392.6 26.1ZM399.1 19.4Q398.7 19.4 398.6 19.2Q398.4 19.1 398.4 18.8V18.7Q398.4 18.5 398.6 18.3Q398.7 18.1 399.1 18.1Q399.5 18.1 399.6 18.3Q399.7 18.5 399.7 18.7V18.8Q399.7 19.1 399.6 19.2Q399.5 19.4 399.1 19.4ZM396.7 25.3H398.7V21.3H396.7V20.6H399.5V25.3H401.3V26H396.7V25.3ZM405 26.1Q404.5 26.1 404 25.9Q403.6 25.7 403.2 25.4Q402.9 25 402.8 24.5Q402.6 23.9 402.6 23.3Q402.6 22.7 402.8 22.1Q402.9 21.6 403.2 21.2Q403.6 20.9 404 20.7Q404.5 20.5 405 20.5Q405.6 20.5 406.1 20.7Q406.5 20.9 406.9 21.2Q407.2 21.6 407.3 22.1Q407.5 22.7 407.5 23.3Q407.5 23.9 407.3 24.5Q407.2 25 406.9 25.4Q406.5 25.7 406.1 25.9Q405.6 26.1 405 26.1ZM405 25.4Q405.8 25.4 406.2 25Q406.6 24.6 406.6 23.7V22.9Q406.6 22 406.2 21.6Q405.8 21.2 405 21.2Q404.3 21.2 403.9 21.6Q403.5 22 403.5 22.9V23.7Q403.5 24.6 403.9 25Q404.3 25.4 405 25.4ZM409.2 26V20.6H410.1V21.5H410.1Q410.2 21.3 410.3 21.1Q410.4 20.9 410.6 20.8Q410.8 20.6 411.1 20.5Q411.3 20.5 411.7 20.5Q412.5 20.5 413 21Q413.5 21.5 413.5 22.5V26H412.7V22.7Q412.7 21.9 412.4 21.6Q412 21.2 411.4 21.2Q411.2 21.2 410.9 21.3Q410.7 21.3 410.5 21.5Q410.3 21.6 410.2 21.8Q410.1 22 410.1 22.2V26H409.2ZM416.1 23.2V22.4H419.2V23.2H416.1ZM424 26.1Q423.5 26.1 423 25.9Q422.5 25.7 422.2 25.4Q421.9 25 421.7 24.5Q421.5 23.9 421.5 23.3Q421.5 22.7 421.7 22.1Q421.9 21.6 422.2 21.2Q422.5 20.9 423 20.7Q423.4 20.5 424 20.5Q424.5 20.5 425 20.7Q425.4 20.9 425.7 21.2Q426.1 21.6 426.2 22Q426.4 22.5 426.4 23.1V23.5H422.4V23.8Q422.4 24.1 422.5 24.4Q422.6 24.7 422.8 24.9Q423 25.2 423.4 25.3Q423.7 25.4 424 25.4Q424.6 25.4 425 25.1Q425.4 24.9 425.6 24.5L426.2 24.9Q426 25.4 425.4 25.8Q424.9 26.1 424 26.1ZM424 21.1Q423.6 21.1 423.4 21.3Q423.1 21.4 422.8 21.6Q422.6 21.8 422.5 22.1Q422.4 22.4 422.4 22.8V22.9H425.5V22.8Q425.5 22.4 425.4 22.1Q425.3 21.8 425.1 21.6Q424.9 21.4 424.6 21.3Q424.3 21.1 424 21.1ZM428.1 26V20.6H429V21.5H429Q429.1 21.3 429.2 21.1Q429.3 20.9 429.5 20.8Q429.7 20.6 430 20.5Q430.2 20.5 430.6 20.5Q431.4 20.5 431.9 21Q432.4 21.5 432.4 22.5V26H431.6V22.7Q431.6 21.9 431.3 21.6Q430.9 21.2 430.3 21.2Q430.1 21.2 429.8 21.3Q429.6 21.3 429.4 21.5Q429.2 21.6 429.1 21.8Q429 22 429 22.2V26H428.1ZM434.3 25.3H436.1V21.3H434.2V20.6H436.1V19.5Q436.1 18.9 436.4 18.6Q436.7 18.2 437.3 18.2H439.1V18.9H436.9V20.6H439.1V21.3H436.9V25.3H438.9V26H434.3V25.3ZM440.8 26Q440.5 26 440.3 25.9Q440.2 25.7 440.2 25.5V25.2Q440.2 25 440.3 24.8Q440.5 24.7 440.8 24.7Q441.2 24.7 441.3 24.8Q441.5 25 441.5 25.2V25.5Q441.5 25.7 441.3 25.9Q441.2 26 440.8 26ZM442.9 26Q442.5 26 442.3 25.9Q442.2 25.7 442.2 25.5V25.2Q442.2 25 442.3 24.8Q442.5 24.7 442.9 24.7Q443.2 24.7 443.4 24.8Q443.5 25 443.5 25.2V25.5Q443.5 25.7 443.4 25.9Q443.2 26 442.9 26ZM444.9 26Q444.5 26 444.4 25.9Q444.2 25.7 444.2 25.5V25.2Q444.2 25 444.4 24.8Q444.5 24.7 444.9 24.7Q445.2 24.7 445.4 24.8Q445.5 25 445.5 25.2V25.5Q445.5 25.7 445.4 25.9Q445.2 26 444.9 26Z"/></g><path class="d" pathLength="1" style="animation-delay:0.23s" d="M1 43L459 43" stroke="#D0D7DE" stroke-width="1" fill="none"/><g class="u" style="animation-delay:0.33s"><path fill="#59636E" d="M14.9 63V55.7H17.6Q18.6 55.7 19.2 56.2Q19.7 56.8 19.7 57.8Q19.7 58.8 19.2 59.3Q18.6 59.9 17.6 59.9H15.8V63H14.9ZM15.8 59.1H17.6Q18.1 59.1 18.5 58.8Q18.8 58.6 18.8 58.1V57.5Q18.8 57 18.5 56.7Q18.1 56.4 17.6 56.4H15.8V59.1ZM21.6 63V55.7H22.4V62.2H25.9V63H21.6ZM31.7 63 31 60.9H28.5L27.8 63H26.9L29.2 55.7H30.3L32.6 63H31.7ZM29.8 56.6H29.7L28.7 60.1H30.8L29.8 56.6ZM36.5 56.4V63H35.6V56.4H33.2V55.7H38.9V56.4H36.5ZM44.3 63 43.6 60.9H41.1L40.4 63H39.5L41.8 55.7H42.9L45.2 63H44.3ZM42.4 56.6H42.3L41.3 60.1H43.4L42.4 56.6ZM46.4 63V55.7H51.1V56.4H47.3V58.9H50.8V59.7H47.3V63H46.4ZM55 63.1Q54.3 63.1 53.8 62.9Q53.3 62.6 53 62.1Q52.7 61.6 52.5 60.9Q52.4 60.2 52.4 59.3Q52.4 58.4 52.5 57.7Q52.7 57 53 56.5Q53.3 56.1 53.8 55.8Q54.3 55.5 55 55.5Q55.6 55.5 56.1 55.8Q56.6 56.1 56.9 56.5Q57.2 57 57.4 57.7Q57.5 58.4 57.5 59.3Q57.5 60.2 57.4 60.9Q57.2 61.6 56.9 62.1Q56.6 62.6 56.1 62.9Q55.6 63.1 55 63.1ZM55 62.4Q55.4 62.4 55.7 62.2Q56 62 56.2 61.7Q56.4 61.4 56.5 60.9Q56.6 60.5 56.6 59.9V58.7Q56.6 58.2 56.5 57.7Q56.4 57.3 56.2 57Q56 56.7 55.7 56.5Q55.4 56.3 55 56.3Q54.5 56.3 54.2 56.5Q53.9 56.7 53.7 57Q53.5 57.3 53.4 57.7Q53.3 58.2 53.3 58.7V59.9Q53.3 60.5 53.4 60.9Q53.5 61.4 53.7 61.7Q53.9 62 54.2 62.2Q54.5 62.4 55 62.4ZM59.9 63H59V55.7H61.7Q62.7 55.7 63.3 56.2Q63.8 56.8 63.8 57.8Q63.8 58.7 63.3 59.2Q62.9 59.7 62 59.8L63.9 63H62.9L61.1 59.9H59.9V63ZM61.7 59.1Q62.2 59.1 62.6 58.8Q62.9 58.6 62.9 58.1V57.5Q62.9 57 62.6 56.7Q62.2 56.4 61.7 56.4H59.9V59.1H61.7ZM69.2 59.3V57H69.1L67.6 60.8L66 57H65.9V59.3V63H65.1V55.7H66.2L67.5 58.9H67.6L68.9 55.7H70V63H69.2V59.3ZM75.8 63 75.1 60.9H72.6L71.9 63H71L73.3 55.7H74.4L76.7 63H75.8ZM73.9 56.6H73.8L72.8 60.1H74.9L73.9 56.6Z"/><path fill="#1F2328" d="M128.8 63H127.4L124.3 53.6H125.5L127 58.3L128.1 61.9H128.1L129.2 58.3L130.8 53.6H132L128.8 63ZM133.9 54.4Q133.6 54.4 133.4 54.2Q133.2 54.1 133.2 53.8V53.6Q133.2 53.3 133.4 53.2Q133.6 53 133.9 53Q134.3 53 134.4 53.2Q134.6 53.3 134.6 53.6V53.8Q134.6 54.1 134.4 54.2Q134.3 54.4 133.9 54.4ZM133.4 63V56H134.4V63H133.4ZM138.8 63.2Q137.9 63.2 137.2 62.8Q136.6 62.4 136.1 61.8L136.9 61.2Q137.3 61.7 137.8 62Q138.3 62.2 138.9 62.2Q139.6 62.2 140 61.9Q140.4 61.6 140.4 61.1Q140.4 60.7 140.1 60.4Q139.8 60.1 139.2 60L138.6 59.9Q138 59.8 137.5 59.6Q136.9 59.4 136.7 59Q136.4 58.6 136.4 57.9Q136.4 56.9 137.1 56.4Q137.8 55.9 138.8 55.9Q139.4 55.9 139.9 56Q140.3 56.1 140.6 56.4Q141 56.6 141.3 57L140.6 57.6Q140.3 57.3 139.9 57.1Q139.4 56.8 138.8 56.8Q138.1 56.8 137.8 57.1Q137.4 57.4 137.4 57.9Q137.4 58.4 137.7 58.6Q138.1 58.8 138.7 59L139.3 59Q140.4 59.2 140.9 59.7Q141.4 60.2 141.4 61Q141.4 61.7 141.1 62.1Q140.8 62.6 140.2 62.9Q139.6 63.2 138.8 63.2ZM143.9 54.4Q143.5 54.4 143.4 54.2Q143.2 54.1 143.2 53.8V53.6Q143.2 53.3 143.4 53.2Q143.5 53 143.9 53Q144.2 53 144.4 53.2Q144.5 53.3 144.5 53.6V53.8Q144.5 54.1 144.4 54.2Q144.2 54.4 143.9 54.4ZM143.3 63V56H144.4V63H143.3ZM149.3 63.2Q148.4 63.2 147.7 62.7Q147 62.3 146.6 61.4Q146.2 60.6 146.2 59.5Q146.2 58.4 146.6 57.6Q147 56.8 147.7 56.3Q148.4 55.9 149.3 55.9Q150.3 55.9 151 56.3Q151.7 56.8 152.1 57.6Q152.5 58.4 152.5 59.5Q152.5 60.6 152.1 61.4Q151.7 62.3 151 62.7Q150.3 63.2 149.3 63.2ZM149.3 62.2Q150.2 62.2 150.8 61.7Q151.3 61.1 151.3 60V59Q151.3 57.9 150.8 57.4Q150.2 56.8 149.3 56.8Q148.5 56.8 147.9 57.4Q147.3 57.9 147.3 59V60Q147.3 61.1 147.9 61.7Q148.5 62.2 149.3 62.2ZM150.9 53 149.4 55.1 148.7 54.8 149.9 52.5 150.9 53ZM155.3 63H154.3V56H155.3V57.2H155.4Q155.6 56.6 156.1 56.2Q156.6 55.9 157.4 55.9Q158.4 55.9 159.1 56.6Q159.7 57.3 159.7 58.5V63H158.6V58.7Q158.6 57.8 158.2 57.3Q157.8 56.8 157 56.8Q156.6 56.8 156.2 57Q155.8 57.1 155.6 57.4Q155.3 57.7 155.3 58.2V63ZM165.1 65.7V56H166.2V57.2H166.2Q166.5 56.5 167 56.2Q167.6 55.9 168.3 55.9Q169.2 55.9 169.8 56.3Q170.4 56.8 170.8 57.6Q171.1 58.4 171.1 59.5Q171.1 60.6 170.8 61.4Q170.4 62.3 169.8 62.7Q169.2 63.2 168.3 63.2Q167.6 63.2 167.1 62.8Q166.6 62.5 166.2 61.9H166.2V65.7H165.1ZM168 62.2Q168.9 62.2 169.4 61.6Q170 61 170 60.1V58.9Q170 58 169.4 57.4Q168.9 56.8 168 56.8Q167.5 56.8 167.1 57Q166.7 57.2 166.4 57.5Q166.2 57.8 166.2 58.2V60.8Q166.2 61.2 166.4 61.5Q166.7 61.9 167.1 62Q167.5 62.2 168 62.2ZM175.6 63.2Q174.6 63.2 173.9 62.7Q173.2 62.3 172.8 61.4Q172.4 60.6 172.4 59.5Q172.4 58.4 172.8 57.6Q173.2 56.8 173.9 56.3Q174.6 55.9 175.6 55.9Q176.5 55.9 177.2 56.3Q177.9 56.8 178.3 57.6Q178.7 58.4 178.7 59.5Q178.7 60.6 178.3 61.4Q177.9 62.3 177.2 62.7Q176.5 63.2 175.6 63.2ZM175.6 62.2Q176.4 62.2 177 61.7Q177.6 61.1 177.6 60V59Q177.6 57.9 177 57.4Q176.4 56.8 175.6 56.8Q174.7 56.8 174.1 57.4Q173.6 57.9 173.6 59V60Q173.6 61.1 174.1 61.7Q174.7 62.2 175.6 62.2ZM181.6 63H180.5V56H181.6V57.3H181.6Q181.8 57 182 56.7Q182.3 56.4 182.7 56.2Q183.1 56 183.7 56H184.1V57.1H183.4Q182.9 57.1 182.4 57.3Q182 57.4 181.8 57.7Q181.6 57.9 181.6 58.3V63ZM191.2 63.2Q189.8 63.2 188.9 62.2Q188.1 61.2 188.1 59.5Q188.1 57.8 188.9 56.9Q189.8 55.9 191.2 55.9Q192.3 55.9 192.9 56.3Q193.5 56.8 193.8 57.5L192.9 58Q192.7 57.4 192.3 57.1Q191.9 56.8 191.2 56.8Q190.3 56.8 189.8 57.4Q189.3 58 189.3 58.9V60.1Q189.3 61 189.8 61.6Q190.3 62.2 191.2 62.2Q191.9 62.2 192.4 61.9Q192.8 61.6 193.1 61L193.9 61.5Q193.6 62.3 192.9 62.7Q192.2 63.2 191.2 63.2ZM198 63.2Q197 63.2 196.3 62.7Q195.6 62.3 195.2 61.4Q194.8 60.6 194.8 59.5Q194.8 58.4 195.2 57.6Q195.6 56.8 196.3 56.3Q197 55.9 198 55.9Q198.9 55.9 199.6 56.3Q200.3 56.8 200.7 57.6Q201.1 58.4 201.1 59.5Q201.1 60.6 200.7 61.4Q200.3 62.3 199.6 62.7Q198.9 63.2 198 63.2ZM198 62.2Q198.9 62.2 199.4 61.7Q200 61.1 200 60V59Q200 57.9 199.4 57.4Q198.9 56.8 198 56.8Q197.1 56.8 196.6 57.4Q196 57.9 196 59V60Q196 61.1 196.6 61.7Q197.1 62.2 198 62.2ZM204 63H202.9V56H204V57.2H204Q204.3 56.6 204.7 56.2Q205.1 55.9 205.9 55.9Q206.6 55.9 207.2 56.2Q207.8 56.5 208.1 57.3H208.1Q208.3 56.7 208.8 56.3Q209.3 55.9 210.2 55.9Q211.3 55.9 211.9 56.6Q212.5 57.3 212.5 58.5V63H211.4V58.7Q211.4 57.8 211 57.3Q210.7 56.8 209.9 56.8Q209.4 56.8 209.1 57Q208.7 57.1 208.5 57.4Q208.2 57.7 208.2 58.2V63H207.1V58.7Q207.1 57.8 206.8 57.3Q206.4 56.8 205.6 56.8Q205.2 56.8 204.8 57Q204.5 57.1 204.2 57.4Q204 57.7 204 58.2V63ZM214.7 65.7V56H215.8V57.2H215.8Q216.1 56.5 216.6 56.2Q217.2 55.9 217.9 55.9Q218.7 55.9 219.4 56.3Q220 56.8 220.4 57.6Q220.7 58.4 220.7 59.5Q220.7 60.6 220.4 61.4Q220 62.3 219.4 62.7Q218.7 63.2 217.9 63.2Q217.2 63.2 216.6 62.8Q216.1 62.5 215.8 61.9H215.8V65.7H214.7ZM217.6 62.2Q218.5 62.2 219 61.6Q219.5 61 219.5 60.1V58.9Q219.5 58 219 57.4Q218.5 56.8 217.6 56.8Q217.1 56.8 216.7 57Q216.3 57.2 216 57.5Q215.8 57.8 215.8 58.2V60.8Q215.8 61.2 216 61.5Q216.3 61.9 216.7 62Q217.1 62.2 217.6 62.2ZM226.8 63V61.9H226.8Q226.6 62.4 226.1 62.8Q225.7 63.2 224.8 63.2Q223.7 63.2 223.1 62.5Q222.5 61.8 222.5 60.5V56H223.5V60.3Q223.5 61.2 223.9 61.7Q224.3 62.2 225.1 62.2Q225.6 62.2 225.9 62Q226.3 61.9 226.6 61.6Q226.8 61.3 226.8 60.9V56H227.9V63H226.8ZM233.1 63H231.7Q231.2 63 230.9 62.7Q230.6 62.4 230.6 61.9V57H229.4V56H230.1Q230.4 56 230.6 55.9Q230.7 55.8 230.7 55.4V54.1H231.7V56H233.2V57H231.7V62.1H233.1V63ZM240.6 63H240Q239.6 63 239.3 62.8Q239 62.6 238.9 62.3Q238.8 62 238.8 61.6V61.5L239.2 61.9H238.7Q238.5 62.5 238 62.8Q237.4 63.2 236.7 63.2Q235.6 63.2 235 62.6Q234.4 62 234.4 61.1Q234.4 60.4 234.7 59.9Q235 59.5 235.7 59.3Q236.3 59 237.3 59H238.7V58.3Q238.7 57.6 238.3 57.2Q237.9 56.8 237.1 56.8Q236.5 56.8 236 57.1Q235.6 57.4 235.3 57.8L234.7 57.2Q234.9 56.7 235.6 56.3Q236.2 55.9 237.1 55.9Q238.4 55.9 239.1 56.5Q239.8 57.1 239.8 58.2V62.1H240.6V63ZM238.7 59.8H237.3Q236.4 59.8 235.9 60.1Q235.5 60.4 235.5 60.9V61.2Q235.5 61.7 235.9 62Q236.3 62.2 236.9 62.2Q237.4 62.2 237.8 62.1Q238.3 61.9 238.5 61.6Q238.7 61.3 238.7 61V59.8ZM246.6 63V61.9H246.5Q246.2 62.5 245.7 62.8Q245.2 63.2 244.5 63.2Q243.6 63.2 243 62.7Q242.4 62.3 242 61.4Q241.7 60.6 241.7 59.5Q241.7 58.4 242 57.6Q242.4 56.8 243 56.3Q243.6 55.9 244.5 55.9Q245.2 55.9 245.7 56.2Q246.3 56.5 246.5 57.2H246.6V53H247.7V63H246.6ZM244.8 62.2Q245.3 62.2 245.7 62Q246.1 61.9 246.4 61.5Q246.6 61.2 246.6 60.8V58.2Q246.6 57.8 246.4 57.5Q246.1 57.2 245.7 57Q245.3 56.8 244.8 56.8Q243.9 56.8 243.4 57.4Q242.8 58 242.8 58.9V60.1Q242.8 61 243.4 61.6Q243.9 62.2 244.8 62.2ZM252.6 63.2Q251.7 63.2 251 62.7Q250.3 62.3 249.9 61.4Q249.5 60.6 249.5 59.5Q249.5 58.4 249.9 57.6Q250.3 56.8 251 56.3Q251.7 55.9 252.6 55.9Q253.5 55.9 254.2 56.3Q254.9 56.8 255.3 57.6Q255.7 58.4 255.7 59.5Q255.7 60.6 255.3 61.4Q254.9 62.3 254.2 62.7Q253.5 63.2 252.6 63.2ZM252.6 62.2Q253.5 62.2 254 61.7Q254.6 61.1 254.6 60V59Q254.6 57.9 254 57.4Q253.5 56.8 252.6 56.8Q251.7 56.8 251.2 57.4Q250.6 57.9 250.6 59V60Q250.6 61.1 251.2 61.7Q251.7 62.2 252.6 62.2ZM258.6 63H257.5V56H258.6V57.3H258.7Q258.8 57 259.1 56.7Q259.3 56.4 259.7 56.2Q260.1 56 260.7 56H261.1V57.1H260.5Q259.9 57.1 259.5 57.3Q259.1 57.4 258.8 57.7Q258.6 57.9 258.6 58.3V63Z"/></g><path class="d" pathLength="1" style="animation-delay:0.33s" d="M1 73L459 73" stroke="#D0D7DE" stroke-width="1" fill="none"/><g class="u" style="animation-delay:0.38s"><path fill="#59636E" d="M17.1 93.1Q16.1 93.1 15.5 92.8Q14.9 92.4 14.5 91.8L15.1 91.3Q15.5 91.8 16 92.1Q16.5 92.4 17.2 92.4Q18 92.4 18.4 92Q18.8 91.6 18.8 91Q18.8 90.4 18.5 90.1Q18.2 89.8 17.4 89.7L16.6 89.6Q16.1 89.5 15.7 89.3Q15.4 89.1 15.1 88.8Q14.9 88.6 14.8 88.2Q14.7 87.9 14.7 87.6Q14.7 86.6 15.4 86.1Q16 85.5 17.2 85.5Q18.1 85.5 18.7 85.8Q19.3 86.1 19.6 86.7L19 87.2Q18.7 86.8 18.3 86.6Q17.8 86.3 17.2 86.3Q16.4 86.3 16 86.6Q15.6 86.9 15.6 87.6Q15.6 88.1 15.9 88.4Q16.2 88.7 17 88.8L17.8 88.9Q18.3 89 18.7 89.2Q19.1 89.4 19.3 89.7Q19.5 89.9 19.6 90.3Q19.7 90.6 19.7 91Q19.7 92 19 92.5Q18.4 93.1 17.1 93.1ZM23.9 86.4V93H23V86.4H20.6V85.7H26.3V86.4H23.9ZM31.7 93 31 90.9H28.5L27.8 93H26.9L29.2 85.7H30.3L32.6 93H31.7ZM29.8 86.6H29.7L28.7 90.1H30.8L29.8 86.6ZM36.3 93.1Q34.9 93.1 34.3 92.1Q33.6 91.2 33.6 89.3Q33.6 87.5 34.3 86.5Q34.9 85.5 36.3 85.5Q36.8 85.5 37.2 85.7Q37.5 85.8 37.8 86Q38.1 86.3 38.2 86.6Q38.4 86.9 38.5 87.2L37.8 87.5Q37.7 87.3 37.6 87Q37.4 86.8 37.3 86.7Q37.1 86.5 36.9 86.4Q36.6 86.3 36.3 86.3Q35.4 86.3 35 87Q34.6 87.6 34.6 88.7V89.9Q34.6 91 35 91.7Q35.4 92.4 36.3 92.4Q36.6 92.4 36.9 92.3Q37.1 92.2 37.3 92Q37.4 91.8 37.6 91.6Q37.7 91.4 37.8 91.2L38.5 91.5Q38.4 91.8 38.2 92.1Q38.1 92.4 37.8 92.6Q37.5 92.9 37.2 93Q36.8 93.1 36.3 93.1ZM42 89.4 41 90.6V93H40.1V85.7H41V89.5H41L42 88.3L44.1 85.7H45.2L42.6 88.8L45.3 93H44.2L42 89.4Z"/><path fill="#1F2328" d="M125.1 93V84.3H128.3Q129.5 84.3 130.2 84.9Q130.8 85.6 130.8 86.8Q130.8 88 130.2 88.6Q129.5 89.3 128.3 89.3H126.2V93H125.1ZM126.2 88.4H128.3Q128.9 88.4 129.3 88.1Q129.7 87.7 129.7 87.1V86.5Q129.7 85.8 129.3 85.5Q128.9 85.2 128.3 85.2H126.2V88.4ZM137.3 86.5H138.3L135.1 94.4Q135 94.7 134.9 94.9Q134.8 95.1 134.6 95.2Q134.4 95.4 134.1 95.4Q133.8 95.5 133.5 95.5H132.5V94.7H134L134.8 92.9L132.2 86.5H133.2L134.3 89.2L135.2 91.7H135.3L136.2 89.2L137.3 86.5ZM143.1 93Q142.3 93 142 92.6Q141.6 92.2 141.6 91.5V87.4H139.5V86.5H141.1Q141.4 86.5 141.5 86.4Q141.7 86.3 141.7 86V84.3H142.6V86.5H145.6V87.4H142.6V92.2H145.6V93H143.1ZM147.7 83.8H148.7V87.6H148.8Q148.9 87.4 149 87.1Q149.2 86.9 149.4 86.8Q149.6 86.6 149.9 86.5Q150.2 86.4 150.6 86.4Q151.6 86.4 152.2 87Q152.8 87.7 152.8 88.9V93H151.8V89Q151.8 88.2 151.5 87.7Q151.1 87.3 150.3 87.3Q150 87.3 149.7 87.4Q149.4 87.4 149.2 87.6Q149 87.7 148.9 88Q148.7 88.2 148.7 88.5V93H147.7V83.8ZM157.8 93.2Q157.1 93.2 156.5 92.9Q156 92.7 155.6 92.2Q155.2 91.8 155 91.2Q154.8 90.5 154.8 89.8Q154.8 89 155 88.4Q155.2 87.8 155.6 87.3Q156 86.9 156.5 86.6Q157.1 86.4 157.8 86.4Q158.4 86.4 159 86.6Q159.5 86.9 159.9 87.3Q160.3 87.8 160.5 88.4Q160.7 89 160.7 89.8Q160.7 90.5 160.5 91.2Q160.3 91.8 159.9 92.2Q159.5 92.7 159 92.9Q158.4 93.2 157.8 93.2ZM157.8 92.3Q158.6 92.3 159.1 91.8Q159.6 91.3 159.6 90.2V89.3Q159.6 88.3 159.1 87.8Q158.6 87.3 157.8 87.3Q156.9 87.3 156.4 87.8Q155.9 88.3 155.9 89.3V90.2Q155.9 91.3 156.4 91.8Q156.9 92.3 157.8 92.3ZM162.7 93V86.5H163.7V87.6H163.8Q163.9 87.4 164 87.1Q164.2 86.9 164.4 86.8Q164.6 86.6 164.9 86.5Q165.2 86.4 165.6 86.4Q166.6 86.4 167.2 87Q167.8 87.7 167.8 88.9V93H166.8V89Q166.8 88.2 166.5 87.7Q166.1 87.3 165.3 87.3Q165 87.3 164.7 87.4Q164.4 87.4 164.2 87.6Q164 87.7 163.9 88Q163.7 88.2 163.7 88.5V93H162.7ZM172.2 91.3H173.8L172.4 94.8H171.6L172.2 91.3ZM187.2 93V89.6L184.2 84.3H185.4L186.7 86.5L187.7 88.5H187.8L188.9 86.5L190.1 84.3H191.3L188.3 89.6V93H187.2ZM195.2 93.2Q194.4 93.2 193.9 92.8Q193.3 92.5 192.9 92Q192.6 91.4 192.4 90.5Q192.2 89.7 192.2 88.6Q192.2 87.6 192.4 86.7Q192.6 85.9 192.9 85.3Q193.3 84.7 193.9 84.4Q194.4 84.1 195.2 84.1Q196.1 84.1 196.6 84.4Q197.2 84.7 197.6 85.3Q197.9 85.9 198.1 86.7Q198.3 87.6 198.3 88.6Q198.3 89.7 198.1 90.5Q197.9 91.4 197.6 92Q197.2 92.5 196.6 92.8Q196.1 93.2 195.2 93.2ZM195.2 92.2Q195.8 92.2 196.1 92Q196.5 91.8 196.7 91.5Q197 91.1 197.1 90.5Q197.2 90 197.2 89.3V87.9Q197.2 87.3 197.1 86.7Q197 86.2 196.7 85.8Q196.5 85.5 196.1 85.2Q195.8 85 195.2 85Q194.7 85 194.4 85.2Q194 85.5 193.8 85.8Q193.5 86.2 193.4 86.7Q193.3 87.3 193.3 87.9V89.3Q193.3 90 193.4 90.5Q193.5 91.1 193.8 91.5Q194 91.8 194.4 92Q194.7 92.2 195.2 92.2ZM200.5 93V84.3H201.6V92.1H205.7V93H200.5ZM210.2 93.2Q209.4 93.2 208.9 92.8Q208.3 92.5 207.9 92Q207.6 91.4 207.4 90.5Q207.2 89.7 207.2 88.6Q207.2 87.6 207.4 86.7Q207.6 85.9 207.9 85.3Q208.3 84.7 208.9 84.4Q209.4 84.1 210.2 84.1Q211.1 84.1 211.6 84.4Q212.2 84.7 212.6 85.3Q212.9 85.9 213.1 86.7Q213.3 87.6 213.3 88.6Q213.3 89.7 213.1 90.5Q212.9 91.4 212.6 92Q212.2 92.5 211.6 92.8Q211.1 93.2 210.2 93.2ZM210.2 92.2Q210.8 92.2 211.1 92Q211.5 91.8 211.7 91.5Q212 91.1 212.1 90.5Q212.2 90 212.2 89.3V87.9Q212.2 87.3 212.1 86.7Q212 86.2 211.7 85.8Q211.5 85.5 211.1 85.2Q210.8 85 210.2 85Q209.7 85 209.4 85.2Q209 85.5 208.8 85.8Q208.5 86.2 208.4 86.7Q208.3 87.3 208.3 87.9V89.3Q208.3 90 208.4 90.5Q208.5 91.1 208.8 91.5Q209 91.8 209.4 92Q209.7 92.2 210.2 92.2ZM220.7 93H214.9V91.9L217.8 89.3Q218.4 88.7 218.8 88.1Q219.3 87.5 219.3 86.8V86.7Q219.3 85.9 218.8 85.5Q218.4 85 217.6 85Q216.8 85 216.4 85.4Q216 85.8 215.8 86.5L214.8 86.2Q214.9 85.8 215.2 85.4Q215.4 85 215.7 84.8Q216.1 84.5 216.5 84.3Q217 84.1 217.7 84.1Q218.3 84.1 218.8 84.3Q219.3 84.5 219.7 84.8Q220 85.2 220.2 85.6Q220.4 86.1 220.4 86.7Q220.4 87.2 220.2 87.6Q220.1 88 219.8 88.4Q219.6 88.8 219.2 89.2Q218.8 89.6 218.4 90L216 92.1H220.7V93ZM225.3 93.2Q224.6 93.2 224 92.9Q223.5 92.7 223.1 92.3Q222.7 91.8 222.5 91.2Q222.3 90.6 222.3 89.8Q222.3 88.8 222.6 88Q222.9 87.1 223.3 86.4Q223.8 85.7 224.4 85.2Q224.9 84.6 225.5 84.3H226.8Q226.1 84.8 225.5 85.3Q225 85.8 224.6 86.3Q224.1 86.8 223.8 87.4Q223.6 88 223.4 88.8L223.4 88.8Q223.8 88.3 224.3 87.9Q224.8 87.6 225.6 87.6Q226.2 87.6 226.6 87.8Q227.1 88 227.5 88.3Q227.8 88.7 228 89.2Q228.2 89.7 228.2 90.3Q228.2 90.9 228 91.4Q227.8 92 227.4 92.3Q227 92.7 226.5 92.9Q225.9 93.2 225.3 93.2ZM225.2 92.3Q226.2 92.3 226.6 91.8Q227.1 91.3 227.1 90.4V90.3Q227.1 89.4 226.6 88.9Q226.2 88.4 225.2 88.4Q224.3 88.4 223.9 88.9Q223.4 89.4 223.4 90.3V90.4Q223.4 91.3 223.9 91.8Q224.3 92.3 225.2 92.3ZM230.2 93V86.5H231.2V87.6H231.3Q231.4 87.4 231.5 87.1Q231.7 86.9 231.9 86.8Q232.1 86.6 232.4 86.5Q232.7 86.4 233.1 86.4Q234.1 86.4 234.7 87Q235.3 87.7 235.3 88.9V93H234.3V89Q234.3 88.2 234 87.7Q233.6 87.3 232.8 87.3Q232.5 87.3 232.2 87.4Q231.9 87.4 231.7 87.6Q231.5 87.7 231.4 88Q231.2 88.2 231.2 88.5V93H230.2ZM239.7 91.3H241.3L239.9 94.8H239.1L239.7 91.3ZM254.7 93V89.6L251.7 84.3H252.9L254.2 86.5L255.2 88.5H255.3L256.4 86.5L257.6 84.3H258.8L255.8 89.6V93H254.7ZM262.8 93.2Q261.9 93.2 261.4 92.8Q260.8 92.5 260.4 92Q260.1 91.4 259.9 90.5Q259.7 89.7 259.7 88.6Q259.7 87.6 259.9 86.7Q260.1 85.9 260.4 85.3Q260.8 84.7 261.4 84.4Q261.9 84.1 262.8 84.1Q263.6 84.1 264.1 84.4Q264.7 84.7 265.1 85.3Q265.4 85.9 265.6 86.7Q265.8 87.6 265.8 88.6Q265.8 89.7 265.6 90.5Q265.4 91.4 265.1 92Q264.7 92.5 264.1 92.8Q263.6 93.2 262.8 93.2ZM262.8 92.2Q263.3 92.2 263.6 92Q264 91.8 264.2 91.5Q264.5 91.1 264.6 90.5Q264.7 90 264.7 89.3V87.9Q264.7 87.3 264.6 86.7Q264.5 86.2 264.2 85.8Q264 85.5 263.6 85.2Q263.3 85 262.8 85Q262.2 85 261.9 85.2Q261.5 85.5 261.3 85.8Q261 86.2 260.9 86.7Q260.8 87.3 260.8 87.9V89.3Q260.8 90 260.9 90.5Q261 91.1 261.3 91.5Q261.5 91.8 261.9 92Q262.2 92.2 262.8 92.2ZM268 93V84.3H269.1V92.1H273.2V93H268ZM277.8 93.2Q276.9 93.2 276.4 92.8Q275.8 92.5 275.4 92Q275.1 91.4 274.9 90.5Q274.7 89.7 274.7 88.6Q274.7 87.6 274.9 86.7Q275.1 85.9 275.4 85.3Q275.8 84.7 276.4 84.4Q276.9 84.1 277.8 84.1Q278.6 84.1 279.1 84.4Q279.7 84.7 280.1 85.3Q280.4 85.9 280.6 86.7Q280.8 87.6 280.8 88.6Q280.8 89.7 280.6 90.5Q280.4 91.4 280.1 92Q279.7 92.5 279.1 92.8Q278.6 93.2 277.8 93.2ZM277.8 92.2Q278.3 92.2 278.6 92Q279 91.8 279.2 91.5Q279.5 91.1 279.6 90.5Q279.7 90 279.7 89.3V87.9Q279.7 87.3 279.6 86.7Q279.5 86.2 279.2 85.8Q279 85.5 278.6 85.2Q278.3 85 277.8 85Q277.2 85 276.9 85.2Q276.5 85.5 276.3 85.8Q276 86.2 275.9 86.7Q275.8 87.3 275.8 87.9V89.3Q275.8 90 275.9 90.5Q276 91.1 276.3 91.5Q276.5 91.8 276.9 92Q277.2 92.2 277.8 92.2ZM282.6 93V92.1H285.1V85H285L282.8 87.1L282.2 86.4L284.5 84.3H286.1V92.1H288.4V93H282.6ZM290.1 93V92.1H292.6V85H292.5L290.3 87.1L289.7 86.4L292 84.3H293.6V92.1H295.9V93H290.1ZM297.7 93V86.5H298.7V87.6H298.8Q298.9 87.4 299 87.1Q299.2 86.9 299.4 86.8Q299.6 86.6 299.9 86.5Q300.2 86.4 300.6 86.4Q301.6 86.4 302.2 87Q302.9 87.7 302.9 88.9V93H301.9V89Q301.9 88.2 301.5 87.7Q301.1 87.3 300.3 87.3Q300 87.3 299.7 87.4Q299.4 87.4 299.2 87.6Q299 87.7 298.9 88Q298.7 88.2 298.7 88.5V93H297.7ZM305.9 89.7V88.7H309.6V89.7H305.9ZM315.5 93.2Q314.8 93.2 314.2 92.9Q313.7 92.7 313.3 92.2Q312.9 91.8 312.7 91.2Q312.6 90.5 312.6 89.8Q312.6 89 312.8 88.4Q312.9 87.8 313.3 87.3Q313.7 86.9 314.2 86.6Q314.8 86.4 315.5 86.4Q316.4 86.4 317 86.8Q317.6 87.2 317.9 87.9L317.1 88.3Q316.9 87.8 316.5 87.5Q316.1 87.3 315.5 87.3Q315 87.3 314.7 87.4Q314.3 87.5 314.1 87.8Q313.9 88.1 313.7 88.4Q313.6 88.8 313.6 89.2V90.3Q313.6 90.8 313.7 91.1Q313.9 91.5 314.1 91.7Q314.3 92 314.7 92.1Q315 92.3 315.5 92.3Q316.1 92.3 316.6 92Q317 91.7 317.2 91.2L317.9 91.7Q317.7 92.3 317.1 92.7Q316.4 93.2 315.5 93.2ZM320 92.2H322.2V84.6H320V83.8H323.2V92.2H325.5V93H320V92.2ZM330.3 93.2Q329.3 93.2 328.6 92.8Q327.9 92.5 327.3 91.9L328 91.3Q328.5 91.8 329 92Q329.6 92.3 330.4 92.3Q331.1 92.3 331.6 92Q332.1 91.8 332.1 91.2Q332.1 91 332 90.8Q331.9 90.6 331.7 90.5Q331.6 90.4 331.4 90.4Q331.1 90.3 330.9 90.3L329.9 90.1Q329.6 90.1 329.2 90Q328.8 89.9 328.5 89.7Q328.1 89.5 327.9 89.2Q327.7 88.8 327.7 88.3Q327.7 87.8 327.9 87.5Q328.1 87.1 328.4 86.9Q328.8 86.6 329.3 86.5Q329.7 86.4 330.3 86.4Q331.2 86.4 331.8 86.7Q332.5 87 332.9 87.4L332.3 88Q332.2 87.9 332 87.8Q331.8 87.6 331.6 87.5Q331.3 87.4 331 87.3Q330.7 87.2 330.3 87.2Q329.5 87.2 329.1 87.5Q328.7 87.8 328.7 88.3Q328.7 88.5 328.8 88.7Q328.9 88.8 329 89Q329.2 89 329.4 89.1Q329.6 89.2 329.8 89.2L330.8 89.3Q331.2 89.4 331.6 89.5Q332 89.6 332.3 89.8Q332.6 90 332.8 90.3Q333.1 90.6 333.1 91.1Q333.1 92.1 332.3 92.6Q331.6 93.2 330.3 93.2Z"/></g><path class="d" pathLength="1" style="animation-delay:0.38s" d="M1 103L459 103" stroke="#D0D7DE" stroke-width="1" fill="none"/><g class="u" style="animation-delay:0.43s"><path fill="#59636E" d="M14.9 123V115.7H19.5V116.4H15.8V118.9H19.3V119.7H15.8V122.2H19.5V123H14.9ZM23.4 123.1Q22.4 123.1 21.8 122.8Q21.2 122.4 20.8 121.8L21.4 121.3Q21.8 121.8 22.3 122.1Q22.8 122.4 23.5 122.4Q24.3 122.4 24.7 122Q25.1 121.6 25.1 121Q25.1 120.4 24.8 120.1Q24.5 119.8 23.7 119.7L22.9 119.6Q22.4 119.5 22 119.3Q21.7 119.1 21.4 118.8Q21.2 118.6 21.1 118.2Q21 117.9 21 117.6Q21 116.6 21.7 116.1Q22.3 115.5 23.5 115.5Q24.4 115.5 25 115.8Q25.6 116.1 25.9 116.7L25.3 117.2Q25 116.8 24.6 116.6Q24.1 116.3 23.5 116.3Q22.7 116.3 22.3 116.6Q21.9 116.9 21.9 117.6Q21.9 118.1 22.2 118.4Q22.5 118.7 23.3 118.8L24.1 118.9Q24.6 119 25 119.2Q25.4 119.4 25.6 119.7Q25.8 119.9 25.9 120.3Q26 120.6 26 121Q26 122 25.3 122.5Q24.7 123.1 23.4 123.1ZM30.2 116.4V123H29.3V116.4H26.9V115.7H32.6V116.4H30.2ZM38 123 37.3 120.9H34.8L34.1 123H33.2L35.5 115.7H36.6L38.9 123H38ZM36.1 116.6H36L35 120.1H37.1L36.1 116.6ZM40.2 115.7H42.2Q43.6 115.7 44.3 116.6Q44.9 117.5 44.9 119.3Q44.9 121.2 44.3 122.1Q43.6 123 42.2 123H40.2V115.7ZM42.2 122.2Q43.1 122.2 43.5 121.6Q44 121 44 119.9V118.8Q44 117.7 43.5 117Q43.1 116.4 42.2 116.4H41.1V122.2H42.2ZM48.6 123.1Q48 123.1 47.5 122.9Q47 122.6 46.7 122.1Q46.4 121.6 46.2 120.9Q46.1 120.2 46.1 119.3Q46.1 118.4 46.2 117.7Q46.4 117 46.7 116.5Q47 116.1 47.5 115.8Q48 115.5 48.6 115.5Q49.3 115.5 49.8 115.8Q50.3 116.1 50.6 116.5Q50.9 117 51.1 117.7Q51.2 118.4 51.2 119.3Q51.2 120.2 51.1 120.9Q50.9 121.6 50.6 122.1Q50.3 122.6 49.8 122.9Q49.3 123.1 48.6 123.1ZM48.6 122.4Q49.1 122.4 49.4 122.2Q49.7 122 49.9 121.7Q50.1 121.4 50.2 120.9Q50.3 120.5 50.3 119.9V118.7Q50.3 118.2 50.2 117.7Q50.1 117.3 49.9 117Q49.7 116.7 49.4 116.5Q49.1 116.3 48.6 116.3Q48.2 116.3 47.9 116.5Q47.6 116.7 47.4 117Q47.2 117.3 47.1 117.7Q47 118.2 47 118.7V119.9Q47 120.5 47.1 120.9Q47.2 121.4 47.4 121.7Q47.6 122 47.9 122.2Q48.2 122.4 48.6 122.4Z"/><path fill="#C2410C" d="M129.3 123 128.7 120.9H126.2L125.5 123H124.2L126.6 115H128.3L130.7 123H129.3ZM127.5 116.3H127.4L126.4 119.8H128.5L127.5 116.3ZM133.1 123H131.9V115H134.9Q136 115 136.6 115.6Q137.2 116.3 137.2 117.4Q137.2 118.3 136.8 118.9Q136.3 119.5 135.5 119.6L137.3 123H135.9L134.2 119.8H133.1V123ZM134.7 118.7Q135.9 118.7 135.9 117.6V117.1Q135.9 116 134.7 116H133.1V118.7H134.7ZM141.9 116.1V123H140.6V116.1H138.1V115H144.4V116.1H141.9ZM145.6 123V122H147.5V116H145.6V115H150.7V116H148.8V122H150.7V123H145.6ZM148.3 114.4 147.5 114 148.6 111.9 149.6 112.5 148.3 114.4ZM155.3 123.1Q153.8 123.1 153 122.1Q152.3 121 152.3 119Q152.3 117 153 115.9Q153.8 114.8 155.3 114.8Q155.9 114.8 156.3 115Q156.7 115.1 157 115.4Q157.3 115.7 157.6 116Q157.8 116.4 157.9 116.8L156.8 117.2Q156.7 116.9 156.5 116.7Q156.4 116.5 156.3 116.3Q156.1 116.1 155.8 116Q155.6 115.9 155.3 115.9Q154.4 115.9 154 116.6Q153.6 117.2 153.6 118.3V119.7Q153.6 120.8 154 121.4Q154.4 122.1 155.3 122.1Q155.6 122.1 155.8 122Q156.1 121.9 156.3 121.7Q156.4 121.5 156.5 121.3Q156.7 121 156.8 120.8L157.9 121.1Q157.8 121.6 157.6 121.9Q157.3 122.3 157 122.6Q156.7 122.8 156.3 123Q155.9 123.1 155.3 123.1ZM160.6 115V119.9Q160.6 120.4 160.6 120.8Q160.6 121.2 160.8 121.5Q160.9 121.8 161.2 121.9Q161.5 122.1 161.9 122.1Q162.4 122.1 162.7 121.9Q163 121.8 163.1 121.5Q163.3 121.2 163.3 120.8Q163.3 120.4 163.3 119.9V115H164.6V119.7Q164.6 120.5 164.5 121.2Q164.4 121.8 164.1 122.3Q163.8 122.7 163.3 122.9Q162.8 123.1 161.9 123.1Q161.1 123.1 160.6 122.9Q160.1 122.7 159.8 122.3Q159.5 121.8 159.4 121.2Q159.3 120.5 159.3 119.7V115H160.6ZM166.6 123V115H167.9V121.9H171.6V123H166.6ZM175.8 123.1Q175 123.1 174.4 122.9Q173.9 122.6 173.5 122Q173.2 121.5 173 120.7Q172.8 120 172.8 119Q172.8 118 173 117.2Q173.2 116.5 173.5 115.9Q173.9 115.4 174.4 115.1Q175 114.8 175.8 114.8Q176.5 114.8 177.1 115.1Q177.6 115.4 178 115.9Q178.3 116.5 178.5 117.2Q178.7 118 178.7 119Q178.7 120 178.5 120.7Q178.3 121.5 178 122Q177.6 122.6 177.1 122.9Q176.5 123.1 175.8 123.1ZM175.8 122.1Q176.6 122.1 177 121.4Q177.3 120.8 177.3 119.7V118.3Q177.3 117.2 177 116.6Q176.6 115.9 175.8 115.9Q174.9 115.9 174.5 116.6Q174.2 117.2 174.2 118.3V119.7Q174.2 120.8 174.5 121.4Q174.9 122.1 175.8 122.1ZM182 121.3H183.8L182.4 124.7H181.4L182 121.3ZM195.6 123 193.3 115H194.7L195.7 119L196.4 121.7H196.5L197.2 119L198.3 115H199.6L197.3 123H195.6ZM200.9 123V115H205.9V116.1H202.2V118.4H205.8V119.5H202.2V121.9H205.9V123H200.9ZM209 123H207.8V115H210.8Q211.9 115 212.5 115.6Q213.1 116.3 213.1 117.4Q213.1 118.3 212.7 118.9Q212.2 119.5 211.4 119.6L213.2 123H211.8L210.1 119.8H209V123ZM210.6 118.7Q211.8 118.7 211.8 117.6V117.1Q211.8 116 210.6 116H209V118.7H210.6ZM217.1 123.1Q216 123.1 215.3 122.8Q214.6 122.4 214.1 121.8L215 121Q215.4 121.6 216 121.8Q216.5 122.1 217.1 122.1Q217.9 122.1 218.3 121.7Q218.7 121.4 218.7 120.7Q218.7 120.2 218.4 119.9Q218.1 119.7 217.4 119.5L216.5 119.4Q215.9 119.3 215.5 119.1Q215.1 118.9 214.9 118.6Q214.7 118.3 214.6 117.9Q214.4 117.6 214.4 117.2Q214.4 116 215.2 115.4Q215.9 114.8 217.2 114.8Q218.2 114.8 218.8 115.1Q219.5 115.4 219.9 116L219.1 116.8Q218.8 116.4 218.3 116.2Q217.9 115.9 217.2 115.9Q216.5 115.9 216.1 116.2Q215.7 116.5 215.7 117.1Q215.7 117.6 216 117.9Q216.3 118.2 217.1 118.3L217.9 118.4Q219 118.6 219.5 119.2Q220 119.8 220 120.7Q220 121.2 219.8 121.7Q219.6 122.1 219.2 122.5Q218.9 122.8 218.3 123Q217.8 123.1 217.1 123.1ZM221.5 123V122H223.4V116H221.5V115H226.6V116H224.7V122H226.6V123H221.5ZM231.1 114.4 230.3 114 231.4 111.9 232.4 112.5 231.1 114.4ZM230.9 123.1Q230.2 123.1 229.6 122.9Q229.1 122.6 228.7 122Q228.4 121.5 228.2 120.7Q228 120 228 119Q228 118 228.2 117.2Q228.4 116.5 228.7 115.9Q229.1 115.4 229.6 115.1Q230.2 114.8 230.9 114.8Q231.7 114.8 232.3 115.1Q232.8 115.4 233.2 115.9Q233.5 116.5 233.7 117.2Q233.9 118 233.9 119Q233.9 120 233.7 120.7Q233.5 121.5 233.2 122Q232.8 122.6 232.3 122.9Q231.7 123.1 230.9 123.1ZM230.9 122.1Q231.8 122.1 232.2 121.4Q232.5 120.8 232.5 119.7V118.3Q232.5 117.2 232.2 116.6Q231.8 115.9 230.9 115.9Q230.1 115.9 229.7 116.6Q229.4 117.2 229.4 118.3V119.7Q229.4 120.8 229.7 121.4Q230.1 122.1 230.9 122.1ZM236.5 116.8H236.4V123H235.2V115H236.9L239.2 121.1H239.3V115H240.5V123H238.8L236.5 116.8ZM250.4 123H249.2V115H252.2Q253.3 115 253.9 115.6Q254.5 116.3 254.5 117.4Q254.5 118.3 254.1 118.9Q253.6 119.5 252.8 119.6L254.6 123H253.2L251.5 119.8H250.4V123ZM252 118.7Q253.2 118.7 253.2 117.6V117.1Q253.2 116 252 116H250.4V118.7H252ZM256.1 123V115H261.1V116.1H257.4V118.4H261V119.5H257.4V121.9H261.1V123H256.1ZM264.6 123 262.3 115H263.7L264.7 119L265.4 121.7H265.5L266.2 119L267.3 115H268.6L266.3 123H264.6ZM269.8 123V122H271.7V116H269.8V115H274.9V116H273V122H274.9V123H269.8ZM279.2 123.1Q278.1 123.1 277.4 122.8Q276.7 122.4 276.2 121.8L277.1 121Q277.5 121.6 278.1 121.8Q278.6 122.1 279.2 122.1Q280 122.1 280.4 121.7Q280.8 121.4 280.8 120.7Q280.8 120.2 280.5 119.9Q280.2 119.7 279.5 119.5L278.6 119.4Q278 119.3 277.6 119.1Q277.2 118.9 277 118.6Q276.8 118.3 276.7 117.9Q276.5 117.6 276.5 117.2Q276.5 116 277.3 115.4Q278 114.8 279.3 114.8Q280.3 114.8 280.9 115.1Q281.6 115.4 282 116L281.2 116.8Q280.9 116.4 280.4 116.2Q280 115.9 279.3 115.9Q278.6 115.9 278.2 116.2Q277.8 116.5 277.8 117.1Q277.8 117.6 278.1 117.9Q278.4 118.2 279.2 118.3L280 118.4Q281.1 118.6 281.6 119.2Q282.1 119.8 282.1 120.7Q282.1 121.2 281.9 121.7Q281.7 122.1 281.3 122.5Q281 122.8 280.4 123Q279.9 123.1 279.2 123.1ZM288 123 287.4 120.9H284.9L284.2 123H282.9L285.3 115H287L289.4 123H288ZM286.2 116.3H286.1L285.1 119.8H287.2L286.2 116.3ZM290.5 115H292.9Q294.5 115 295.2 116Q296 117 296 119Q296 121 295.2 122Q294.5 123 292.9 123H290.5V115ZM292.9 121.9Q293.7 121.9 294.2 121.3Q294.6 120.8 294.6 119.7V118.3Q294.6 117.2 294.2 116.6Q293.7 116 292.9 116H291.8V121.9H292.9ZM301.8 123 301.2 120.9H298.7L298 123H296.7L299.1 115H300.8L303.2 123H301.8ZM300 116.3H299.9L298.9 119.8H301L300 116.3Z"/></g><path class="d" pathLength="1" style="animation-delay:0.43s" d="M1 133L459 133" stroke="#D0D7DE" stroke-width="1" fill="none"/><path class="d" pathLength="1" style="animation-delay:0.33s" d="M110 43L110 133" stroke="#D0D7DE" stroke-width="1" fill="none"/><g class="u" style="animation-delay:0.53s"><path fill="#1F2328" d="M18.7 159.2Q17.5 159.2 16.6 158.6Q15.8 158 15.3 156.9Q14.8 155.8 14.8 154.2Q14.8 152.5 15.3 151.4Q15.8 150.2 16.6 149.7Q17.5 149.1 18.7 149.1Q20 149.1 20.8 149.6Q21.6 150.2 22.1 151.2L21.2 151.8Q20.9 151 20.3 150.6Q19.7 150.1 18.7 150.1Q17.5 150.1 16.8 151Q16.1 151.9 16.1 153.4V154.9Q16.1 156.4 16.8 157.3Q17.5 158.1 18.7 158.1Q19.7 158.1 20.3 157.6Q20.9 157.2 21.2 156.4L22.2 156.9Q21.7 158 20.8 158.6Q20 159.2 18.7 159.2ZM29.8 159H29.1Q28.7 159 28.4 158.8Q28.1 158.6 28 158.3Q27.9 157.9 27.9 157.5V157.4L28.3 157.8H27.8Q27.6 158.5 27 158.8Q26.5 159.2 25.7 159.2Q24.6 159.2 23.9 158.6Q23.3 158 23.3 157Q23.3 156.3 23.6 155.8Q24 155.4 24.7 155.1Q25.3 154.9 26.4 154.9H27.8V154.2Q27.8 153.4 27.4 153Q27 152.6 26.1 152.6Q25.5 152.6 25 152.9Q24.6 153.2 24.3 153.7L23.6 153Q23.9 152.4 24.5 152Q25.2 151.6 26.2 151.6Q27.5 151.6 28.2 152.3Q28.9 152.9 28.9 154V158H29.8V159ZM27.8 155.7H26.3Q25.4 155.7 24.9 156Q24.5 156.3 24.5 156.8V157.1Q24.5 157.6 24.9 157.9Q25.3 158.2 25.9 158.2Q26.5 158.2 26.9 158Q27.3 157.9 27.6 157.6Q27.8 157.3 27.8 156.9V155.7ZM33.5 159.2Q32.5 159.2 31.9 158.8Q31.2 158.4 30.7 157.8L31.5 157.1Q31.9 157.6 32.4 157.9Q32.9 158.2 33.6 158.2Q34.3 158.2 34.7 157.9Q35.1 157.6 35.1 157Q35.1 156.6 34.9 156.3Q34.6 156 33.9 155.9L33.3 155.8Q32.6 155.7 32.1 155.5Q31.6 155.3 31.3 154.8Q31 154.4 31 153.7Q31 152.7 31.7 152.1Q32.4 151.6 33.5 151.6Q34.1 151.6 34.6 151.7Q35 151.9 35.4 152.1Q35.8 152.4 36.1 152.8L35.3 153.4Q35.1 153.1 34.6 152.8Q34.2 152.6 33.5 152.6Q32.8 152.6 32.4 152.9Q32 153.2 32 153.7Q32 154.2 32.4 154.4Q32.8 154.7 33.4 154.8L34 154.9Q35.2 155.1 35.7 155.6Q36.2 156.1 36.2 156.9Q36.2 157.6 35.9 158.1Q35.6 158.6 35 158.9Q34.4 159.2 33.5 159.2ZM40.9 159.2Q39.3 159.2 38.5 158.1Q37.6 157.1 37.6 155.4Q37.6 153.7 38.5 152.6Q39.3 151.6 40.9 151.6Q41.9 151.6 42.6 152.1Q43.3 152.6 43.6 153.3L42.6 153.8Q42.4 153.2 42 152.9Q41.5 152.6 40.9 152.6Q39.9 152.6 39.4 153.2Q38.9 153.8 38.9 154.8V156Q38.9 156.9 39.4 157.6Q39.9 158.2 40.9 158.2Q41.6 158.2 42 157.9Q42.5 157.5 42.8 156.9L43.6 157.5Q43.3 158.2 42.6 158.7Q41.9 159.2 40.9 159.2ZM51.1 159H50.5Q50 159 49.7 158.8Q49.5 158.6 49.3 158.3Q49.2 157.9 49.2 157.5V157.4L49.6 157.8H49.2Q48.9 158.5 48.4 158.8Q47.8 159.2 47.1 159.2Q45.9 159.2 45.3 158.6Q44.6 158 44.6 157Q44.6 156.3 45 155.8Q45.3 155.4 46 155.1Q46.7 154.9 47.7 154.9H49.2V154.2Q49.2 153.4 48.7 153Q48.3 152.6 47.4 152.6Q46.8 152.6 46.4 152.9Q45.9 153.2 45.6 153.7L44.9 153Q45.2 152.4 45.9 152Q46.5 151.6 47.5 151.6Q48.8 151.6 49.5 152.3Q50.3 152.9 50.3 154V158H51.1V159ZM49.2 155.7H47.7Q46.7 155.7 46.3 156Q45.8 156.3 45.8 156.8V157.1Q45.8 157.6 46.2 157.9Q46.6 158.2 47.2 158.2Q47.8 158.2 48.2 158Q48.7 157.9 48.9 157.6Q49.2 157.3 49.2 156.9V155.7ZM57.3 159V157.8H57.3Q56.9 158.5 56.4 158.8Q55.9 159.2 55.1 159.2Q54.2 159.2 53.6 158.7Q52.9 158.2 52.6 157.4Q52.2 156.5 52.2 155.4Q52.2 154.2 52.6 153.4Q52.9 152.5 53.6 152.1Q54.2 151.6 55.1 151.6Q55.9 151.6 56.4 151.9Q57 152.3 57.3 153H57.3V148.6H58.4V159H57.3ZM55.5 158.2Q56 158.2 56.4 158Q56.8 157.8 57.1 157.5Q57.3 157.2 57.3 156.7V154Q57.3 153.6 57.1 153.3Q56.8 153 56.4 152.8Q56 152.6 55.5 152.6Q54.5 152.6 54 153.2Q53.4 153.8 53.4 154.8V156Q53.4 157 54 157.6Q54.5 158.2 55.5 158.2ZM66.7 159H66.1Q65.6 159 65.3 158.8Q65.1 158.6 64.9 158.3Q64.8 157.9 64.8 157.5V157.4L65.2 157.8H64.8Q64.5 158.5 64 158.8Q63.4 159.2 62.7 159.2Q61.5 159.2 60.9 158.6Q60.2 158 60.2 157Q60.2 156.3 60.6 155.8Q60.9 155.4 61.6 155.1Q62.3 154.9 63.3 154.9H64.8V154.2Q64.8 153.4 64.3 153Q63.9 152.6 63 152.6Q62.4 152.6 61.9 152.9Q61.5 153.2 61.2 153.7L60.5 153Q60.8 152.4 61.5 152Q62.1 151.6 63.1 151.6Q64.4 151.6 65.1 152.3Q65.9 152.9 65.9 154V158H66.7V159ZM64.8 155.7H63.3Q62.3 155.7 61.9 156Q61.4 156.3 61.4 156.8V157.1Q61.4 157.6 61.8 157.9Q62.2 158.2 62.8 158.2Q63.4 158.2 63.8 158Q64.3 157.9 64.5 157.6Q64.8 157.3 64.8 156.9V155.7ZM76.2 159V157.8H76.2Q75.8 158.5 75.3 158.8Q74.8 159.2 74 159.2Q73.2 159.2 72.5 158.7Q71.8 158.2 71.5 157.4Q71.1 156.5 71.1 155.4Q71.1 154.2 71.5 153.4Q71.8 152.5 72.5 152.1Q73.2 151.6 74 151.6Q74.8 151.6 75.3 151.9Q75.9 152.3 76.2 153H76.2V148.6H77.3V159H76.2ZM74.4 158.2Q74.9 158.2 75.3 158Q75.7 157.8 76 157.5Q76.2 157.2 76.2 156.7V154Q76.2 153.6 76 153.3Q75.7 153 75.3 152.8Q74.9 152.6 74.4 152.6Q73.4 152.6 72.9 153.2Q72.3 153.8 72.3 154.8V156Q72.3 157 72.9 157.6Q73.4 158.2 74.4 158.2ZM82.4 159.2Q81.5 159.2 80.7 158.7Q80 158.2 79.6 157.4Q79.2 156.5 79.2 155.4Q79.2 154.2 79.6 153.4Q80 152.5 80.7 152.1Q81.5 151.6 82.4 151.6Q83.4 151.6 84.1 152.1Q84.8 152.5 85.2 153.3Q85.6 154.1 85.6 155.1V155.7H80.4V156Q80.4 156.9 80.9 157.6Q81.5 158.2 82.5 158.2Q83.2 158.2 83.7 157.9Q84.2 157.5 84.5 156.9L85.3 157.5Q84.9 158.2 84.2 158.7Q83.5 159.2 82.4 159.2ZM82.4 152.5Q81.8 152.5 81.4 152.8Q80.9 153.1 80.6 153.6Q80.4 154.1 80.4 154.7V154.8H84.3V154.7Q84.3 154 84.1 153.6Q83.9 153.1 83.4 152.8Q83 152.5 82.4 152.5ZM95.3 159V157.8H95.3Q94.9 158.5 94.4 158.8Q93.9 159.2 93.2 159.2Q92.3 159.2 91.6 158.7Q90.9 158.2 90.6 157.4Q90.2 156.5 90.2 155.4Q90.2 154.2 90.6 153.4Q90.9 152.5 91.6 152.1Q92.3 151.6 93.2 151.6Q93.9 151.6 94.4 151.9Q95 152.3 95.3 153H95.3V148.6H96.4V159H95.3ZM93.5 158.2Q94 158.2 94.4 158Q94.8 157.8 95.1 157.5Q95.3 157.2 95.3 156.7V154Q95.3 153.6 95.1 153.3Q94.8 153 94.4 152.8Q94 152.6 93.5 152.6Q92.5 152.6 92 153.2Q91.4 153.8 91.4 154.8V156Q91.4 157 92 157.6Q92.5 158.2 93.5 158.2ZM101.5 159.2Q100.6 159.2 99.8 158.7Q99.1 158.2 98.7 157.4Q98.3 156.5 98.3 155.4Q98.3 154.2 98.7 153.4Q99.1 152.5 99.8 152.1Q100.6 151.6 101.5 151.6Q102.5 151.6 103.2 152.1Q103.9 152.5 104.3 153.3Q104.7 154.1 104.7 155.1V155.7H99.5V156Q99.5 156.9 100 157.6Q100.6 158.2 101.6 158.2Q102.3 158.2 102.8 157.9Q103.3 157.5 103.6 156.9L104.4 157.5Q104 158.2 103.3 158.7Q102.6 159.2 101.5 159.2ZM101.5 152.5Q100.9 152.5 100.5 152.8Q100 153.1 99.7 153.6Q99.5 154.1 99.5 154.7V154.8H103.5V154.7Q103.5 154 103.2 153.6Q103 153.1 102.5 152.8Q102.1 152.5 101.5 152.5ZM109.5 159H108.1Q107.5 159 107.2 158.7Q106.9 158.3 106.9 157.8V152.8H105.7V151.8H106.4Q106.8 151.8 106.9 151.6Q107 151.5 107 151.1V149.8H108V151.8H109.6V152.8H108V158H109.5V159ZM114.1 159.2Q113.1 159.2 112.4 158.7Q111.7 158.2 111.2 157.4Q110.8 156.5 110.8 155.4Q110.8 154.2 111.2 153.4Q111.7 152.5 112.4 152.1Q113.1 151.6 114.1 151.6Q115.1 151.6 115.8 152.1Q116.5 152.5 116.8 153.3Q117.2 154.1 117.2 155.1V155.7H112V156Q112 156.9 112.6 157.6Q113.1 158.2 114.2 158.2Q114.8 158.2 115.4 157.9Q115.9 157.5 116.1 156.9L116.9 157.5Q116.6 158.2 115.9 158.7Q115.1 159.2 114.1 159.2ZM114.1 152.5Q113.5 152.5 113 152.8Q112.5 153.1 112.3 153.6Q112 154.1 112 154.7V154.8H116V154.7Q116 154 115.8 153.6Q115.5 153.1 115.1 152.8Q114.7 152.5 114.1 152.5ZM121.7 159.2Q120.2 159.2 119.4 158.1Q118.5 157.1 118.5 155.4Q118.5 153.7 119.4 152.6Q120.2 151.6 121.7 151.6Q122.8 151.6 123.5 152.1Q124.1 152.6 124.4 153.3L123.5 153.8Q123.3 153.2 122.9 152.9Q122.4 152.6 121.7 152.6Q120.8 152.6 120.2 153.2Q119.7 153.8 119.7 154.8V156Q119.7 156.9 120.2 157.6Q120.8 158.2 121.7 158.2Q122.4 158.2 122.9 157.9Q123.4 157.5 123.7 156.9L124.5 157.5Q124.2 158.2 123.5 158.7Q122.8 159.2 121.7 159.2ZM129.1 159H127.7Q127.1 159 126.8 158.7Q126.5 158.3 126.5 157.8V152.8H125.3V151.8H126Q126.3 151.8 126.5 151.6Q126.6 151.5 126.6 151.1V149.8H127.6V151.8H129.2V152.8H127.6V158H129.1V159ZM133.7 159.2Q132.7 159.2 132 158.7Q131.3 158.2 130.8 157.4Q130.4 156.5 130.4 155.4Q130.4 154.2 130.8 153.4Q131.3 152.5 132 152.1Q132.7 151.6 133.7 151.6Q134.7 151.6 135.4 152.1Q136.1 152.5 136.5 153.4Q136.9 154.2 136.9 155.4Q136.9 156.5 136.5 157.4Q136.1 158.2 135.4 158.7Q134.7 159.2 133.7 159.2ZM133.7 158.2Q134.6 158.2 135.2 157.6Q135.7 157.1 135.7 155.9V154.9Q135.7 153.7 135.2 153.2Q134.6 152.6 133.7 152.6Q132.8 152.6 132.2 153.2Q131.6 153.7 131.6 154.9V155.9Q131.6 157.1 132.2 157.6Q132.8 158.2 133.7 158.2ZM139.9 159H138.8V151.8H139.9V153.1H140Q140.1 152.8 140.4 152.5Q140.6 152.2 141.1 152Q141.5 151.8 142.1 151.8H142.5V152.9H141.8Q141.2 152.9 140.8 153.1Q140.4 153.2 140.1 153.5Q139.9 153.8 139.9 154.1V159ZM149.9 156.7 151.7 151.8H152.8L149.6 160.7Q149.4 161.1 149.2 161.4Q149 161.6 148.7 161.7Q148.4 161.8 147.9 161.8H147.3V160.8H148.4L149 159.3L146.3 151.8H147.4L149.1 156.7L149.5 157.9H149.5L149.9 156.7ZM160.2 159.2Q158.7 159.2 157.8 158.1Q157 157.1 157 155.4Q157 153.7 157.8 152.6Q158.7 151.6 160.2 151.6Q161.3 151.6 162 152.1Q162.6 152.6 162.9 153.3L162 153.8Q161.8 153.2 161.3 152.9Q160.9 152.6 160.2 152.6Q159.2 152.6 158.7 153.2Q158.2 153.8 158.2 154.8V156Q158.2 156.9 158.7 157.6Q159.2 158.2 160.2 158.2Q160.9 158.2 161.4 157.9Q161.9 157.5 162.2 156.9L163 157.5Q162.6 158.2 161.9 158.7Q161.3 159.2 160.2 159.2ZM166.8 159H165.8Q165.2 159 164.9 158.7Q164.6 158.3 164.6 157.8V148.6H165.7V158H166.8V159ZM174.3 159H173.6Q173.2 159 172.9 158.8Q172.6 158.6 172.5 158.3Q172.4 157.9 172.4 157.5V157.4L172.8 157.8H172.3Q172.1 158.5 171.5 158.8Q171 159.2 170.2 159.2Q169.1 159.2 168.4 158.6Q167.8 158 167.8 157Q167.8 156.3 168.1 155.8Q168.5 155.4 169.2 155.1Q169.8 154.9 170.9 154.9H172.3V154.2Q172.3 153.4 171.9 153Q171.5 152.6 170.6 152.6Q170 152.6 169.5 152.9Q169.1 153.2 168.8 153.7L168.1 153Q168.4 152.4 169 152Q169.7 151.6 170.7 151.6Q172 151.6 172.7 152.3Q173.4 152.9 173.4 154V158H174.3V159ZM172.3 155.7H170.8Q169.9 155.7 169.4 156Q169 156.3 169 156.8V157.1Q169 157.6 169.4 157.9Q169.8 158.2 170.4 158.2Q171 158.2 171.4 158Q171.8 157.9 172.1 157.6Q172.3 157.3 172.3 156.9V155.7ZM178 159.2Q177 159.2 176.3 158.8Q175.7 158.4 175.2 157.8L176 157.1Q176.4 157.6 176.9 157.9Q177.4 158.2 178.1 158.2Q178.8 158.2 179.2 157.9Q179.6 157.6 179.6 157Q179.6 156.6 179.3 156.3Q179.1 156 178.4 155.9L177.8 155.8Q177.1 155.7 176.6 155.5Q176.1 155.3 175.8 154.8Q175.5 154.4 175.5 153.7Q175.5 152.7 176.2 152.1Q176.9 151.6 178 151.6Q178.6 151.6 179.1 151.7Q179.5 151.9 179.9 152.1Q180.3 152.4 180.6 152.8L179.8 153.4Q179.6 153.1 179.1 152.8Q178.7 152.6 178 152.6Q177.3 152.6 176.9 152.9Q176.5 153.2 176.5 153.7Q176.5 154.2 176.9 154.4Q177.3 154.7 177.9 154.8L178.5 154.9Q179.7 155.1 180.2 155.6Q180.7 156.1 180.7 156.9Q180.7 157.6 180.4 158.1Q180.1 158.6 179.5 158.9Q178.9 159.2 178 159.2ZM183.2 150.1Q182.9 150.1 182.7 149.9Q182.5 149.7 182.5 149.5V149.3Q182.5 149 182.7 148.8Q182.9 148.6 183.2 148.6Q183.6 148.6 183.8 148.8Q183.9 149 183.9 149.3V149.5Q183.9 149.7 183.8 149.9Q183.6 150.1 183.2 150.1ZM182.7 159V151.8H183.8V159H182.7ZM186.6 159V152.8H185.4V151.8H186.6V150.3Q186.6 149.6 187 149.1Q187.3 148.6 188.1 148.6H189.2V149.6H187.7V151.8H191.7V159H190.6V152.8H187.7V159H186.6ZM191.2 150.1Q190.8 150.1 190.7 149.9Q190.5 149.7 190.5 149.5V149.3Q190.5 149 190.7 148.8Q190.8 148.6 191.2 148.6Q191.5 148.6 191.7 148.8Q191.9 149 191.9 149.3V149.5Q191.9 149.7 191.7 149.9Q191.5 150.1 191.2 150.1ZM196.8 159.2Q195.3 159.2 194.4 158.1Q193.6 157.1 193.6 155.4Q193.6 153.7 194.4 152.6Q195.3 151.6 196.8 151.6Q197.9 151.6 198.5 152.1Q199.2 152.6 199.5 153.3L198.6 153.8Q198.4 153.2 197.9 152.9Q197.5 152.6 196.8 152.6Q195.8 152.6 195.3 153.2Q194.8 153.8 194.8 154.8V156Q194.8 156.9 195.3 157.6Q195.8 158.2 196.8 158.2Q197.5 158.2 198 157.9Q198.5 157.5 198.8 156.9L199.6 157.5Q199.2 158.2 198.5 158.7Q197.8 159.2 196.8 159.2ZM207 159H206.4Q206 159 205.7 158.8Q205.4 158.6 205.3 158.3Q205.1 157.9 205.1 157.5V157.4L205.6 157.8H205.1Q204.9 158.5 204.3 158.8Q203.8 159.2 203 159.2Q201.9 159.2 201.2 158.6Q200.6 158 200.6 157Q200.6 156.3 200.9 155.8Q201.3 155.4 201.9 155.1Q202.6 154.9 203.7 154.9H205.1V154.2Q205.1 153.4 204.7 153Q204.2 152.6 203.4 152.6Q202.7 152.6 202.3 152.9Q201.8 153.2 201.5 153.7L200.9 153Q201.2 152.4 201.8 152Q202.5 151.6 203.4 151.6Q204.7 151.6 205.5 152.3Q206.2 152.9 206.2 154V158H207V159ZM205.1 155.7H203.6Q202.7 155.7 202.2 156Q201.8 156.3 201.8 156.8V157.1Q201.8 157.6 202.1 157.9Q202.5 158.2 203.2 158.2Q203.7 158.2 204.2 158Q204.6 157.9 204.8 157.6Q205.1 157.3 205.1 156.9V155.7ZM213.2 159V157.8H213.2Q212.9 158.5 212.3 158.8Q211.8 159.2 211.1 159.2Q210.2 159.2 209.5 158.7Q208.9 158.2 208.5 157.4Q208.1 156.5 208.1 155.4Q208.1 154.2 208.5 153.4Q208.9 152.5 209.5 152.1Q210.2 151.6 211.1 151.6Q211.8 151.6 212.4 151.9Q212.9 152.3 213.2 153H213.2V148.6H214.4V159H213.2ZM211.4 158.2Q211.9 158.2 212.3 158Q212.7 157.8 213 157.5Q213.2 157.2 213.2 156.7V154Q213.2 153.6 213 153.3Q212.7 153 212.3 152.8Q211.9 152.6 211.4 152.6Q210.4 152.6 209.9 153.2Q209.3 153.8 209.3 154.8V156Q209.3 157 209.9 157.6Q210.4 158.2 211.4 158.2ZM219.5 159.2Q218.5 159.2 217.8 158.7Q217 158.2 216.6 157.4Q216.2 156.5 216.2 155.4Q216.2 154.2 216.6 153.4Q217 152.5 217.8 152.1Q218.5 151.6 219.5 151.6Q220.4 151.6 221.2 152.1Q221.9 152.5 222.3 153.4Q222.7 154.2 222.7 155.4Q222.7 156.5 222.3 157.4Q221.9 158.2 221.2 158.7Q220.4 159.2 219.5 159.2ZM219.5 158.2Q220.4 158.2 221 157.6Q221.5 157.1 221.5 155.9V154.9Q221.5 153.7 221 153.2Q220.4 152.6 219.5 152.6Q218.6 152.6 218 153.2Q217.4 153.7 217.4 154.9V155.9Q217.4 157.1 218 157.6Q218.6 158.2 219.5 158.2ZM225.7 159H224.6V151.8H225.7V153.1H225.8Q225.9 152.8 226.2 152.5Q226.4 152.2 226.9 152Q227.3 151.8 227.9 151.8H228.3V152.9H227.6Q227 152.9 226.6 153.1Q226.2 153.2 225.9 153.5Q225.7 153.8 225.7 154.1V159ZM229.3 157.4Q229.8 157.4 230 157.6Q230.2 157.8 230.2 158.2V158.4Q230.2 158.9 229.8 159.6Q229.5 160.3 228.9 160.9H228Q228.4 160.4 228.6 160Q228.9 159.6 229 159.1Q228.7 159.1 228.6 158.9Q228.5 158.7 228.5 158.4V158.2Q228.5 157.8 228.7 157.6Q228.9 157.4 229.3 157.4ZM238.4 159.2Q236.9 159.2 236 158.1Q235.2 157.1 235.2 155.4Q235.2 153.7 236 152.6Q236.9 151.6 238.4 151.6Q239.5 151.6 240.1 152.1Q240.8 152.6 241.1 153.3L240.2 153.8Q240 153.2 239.5 152.9Q239.1 152.6 238.4 152.6Q237.4 152.6 236.9 153.2Q236.4 153.8 236.4 154.8V156Q236.4 156.9 236.9 157.6Q237.4 158.2 238.4 158.2Q239.1 158.2 239.6 157.9Q240.1 157.5 240.4 156.9L241.2 157.5Q240.8 158.2 240.1 158.7Q239.4 159.2 238.4 159.2ZM245.4 159.2Q244.4 159.2 243.7 158.7Q243 158.2 242.6 157.4Q242.1 156.5 242.1 155.4Q242.1 154.2 242.6 153.4Q243 152.5 243.7 152.1Q244.4 151.6 245.4 151.6Q246.4 151.6 247.1 152.1Q247.8 152.5 248.3 153.4Q248.7 154.2 248.7 155.4Q248.7 156.5 248.3 157.4Q247.8 158.2 247.1 158.7Q246.4 159.2 245.4 159.2ZM245.4 158.2Q246.3 158.2 246.9 157.6Q247.5 157.1 247.5 155.9V154.9Q247.5 153.7 246.9 153.2Q246.3 152.6 245.4 152.6Q244.5 152.6 243.9 153.2Q243.3 153.7 243.3 154.9V155.9Q243.3 157.1 243.9 157.6Q244.5 158.2 245.4 158.2ZM251.6 159H250.5V151.8H251.6V153H251.7Q252 152.3 252.4 152Q252.9 151.6 253.7 151.6Q254.9 151.6 255.5 152.3Q256.2 153.1 256.2 154.4V159H255V154.6Q255 153.6 254.6 153.1Q254.2 152.6 253.4 152.6Q253 152.6 252.5 152.8Q252.1 152.9 251.9 153.2Q251.6 153.5 251.6 154V159ZM267.7 159H267Q266.6 159 266.3 158.8Q266 158.6 265.9 158.3Q265.8 157.9 265.8 157.5V157.4L266.2 157.8H265.7Q265.5 158.5 264.9 158.8Q264.4 159.2 263.6 159.2Q262.5 159.2 261.8 158.6Q261.2 158 261.2 157Q261.2 156.3 261.5 155.8Q261.9 155.4 262.5 155.1Q263.2 154.9 264.3 154.9H265.7V154.2Q265.7 153.4 265.3 153Q264.9 152.6 264 152.6Q263.4 152.6 262.9 152.9Q262.5 153.2 262.2 153.7L261.5 153Q261.8 152.4 262.4 152Q263.1 151.6 264.1 151.6Q265.4 151.6 266.1 152.3Q266.8 152.9 266.8 154V158H267.7V159ZM265.7 155.7H264.2Q263.3 155.7 262.8 156Q262.4 156.3 262.4 156.8V157.1Q262.4 157.6 262.8 157.9Q263.2 158.2 263.8 158.2Q264.4 158.2 264.8 158Q265.2 157.9 265.5 157.6Q265.7 157.3 265.7 156.9V155.7ZM273.7 159V157.8H273.6Q273.4 158.3 273 158.8Q272.5 159.2 271.6 159.2Q270.5 159.2 269.8 158.4Q269.2 157.7 269.2 156.4V151.8H270.3V156.2Q270.3 157.2 270.7 157.7Q271.1 158.2 271.9 158.2Q272.4 158.2 272.8 158Q273.2 157.9 273.4 157.6Q273.7 157.2 273.7 156.8V151.8H274.8V159H273.7ZM281.8 159V157.8H281.8Q281.4 158.5 280.9 158.8Q280.4 159.2 279.6 159.2Q278.8 159.2 278.1 158.7Q277.4 158.2 277.1 157.4Q276.7 156.5 276.7 155.4Q276.7 154.2 277.1 153.4Q277.4 152.5 278.1 152.1Q278.8 151.6 279.6 151.6Q280.4 151.6 280.9 151.9Q281.5 152.3 281.8 153H281.8V148.6H282.9V159H281.8ZM280 158.2Q280.5 158.2 280.9 158Q281.3 157.8 281.6 157.5Q281.8 157.2 281.8 156.7V154Q281.8 153.6 281.6 153.3Q281.3 153 280.9 152.8Q280.5 152.6 280 152.6Q279 152.6 278.5 153.2Q277.9 153.8 277.9 154.8V156Q277.9 157 278.5 157.6Q279 158.2 280 158.2ZM285.9 150.1Q285.5 150.1 285.4 149.9Q285.2 149.7 285.2 149.5V149.3Q285.2 149 285.4 148.8Q285.5 148.6 285.9 148.6Q286.2 148.6 286.4 148.8Q286.6 149 286.6 149.3V149.5Q286.6 149.7 286.4 149.9Q286.2 150.1 285.9 150.1ZM285.3 159V151.8H286.4V159H285.3ZM291.8 159H290.4Q289.8 159 289.5 158.7Q289.2 158.3 289.2 157.8V152.8H288V151.8H288.7Q289.1 151.8 289.2 151.6Q289.3 151.5 289.3 151.1V149.8H290.3V151.8H291.9V152.8H290.3V158H291.8V159ZM296.4 159.2Q295.4 159.2 294.7 158.7Q294 158.2 293.6 157.4Q293.1 156.5 293.1 155.4Q293.1 154.2 293.6 153.4Q294 152.5 294.7 152.1Q295.4 151.6 296.4 151.6Q297.4 151.6 298.1 152.1Q298.8 152.5 299.3 153.4Q299.7 154.2 299.7 155.4Q299.7 156.5 299.3 157.4Q298.8 158.2 298.1 158.7Q297.4 159.2 296.4 159.2ZM296.4 158.2Q297.3 158.2 297.9 157.6Q298.5 157.1 298.5 155.9V154.9Q298.5 153.7 297.9 153.2Q297.3 152.6 296.4 152.6Q295.5 152.6 294.9 153.2Q294.4 153.7 294.4 154.9V155.9Q294.4 157.1 294.9 157.6Q295.5 158.2 296.4 158.2ZM302.6 159H301.5V151.8H302.6V153.1H302.7Q302.8 152.8 303.1 152.5Q303.4 152.2 303.8 152Q304.2 151.8 304.8 151.8H305.2V152.9H304.6Q304 152.9 303.5 153.1Q303.1 153.2 302.9 153.5Q302.6 153.8 302.6 154.1V159ZM307.8 159H306.7V151.8H307.8V159ZM308.8 148.6 307.3 150.8 306.6 150.5 307.8 148.1 308.8 148.6ZM316 159H315.4Q315 159 314.7 158.8Q314.4 158.6 314.3 158.3Q314.1 157.9 314.1 157.5V157.4L314.6 157.8H314.1Q313.9 158.5 313.3 158.8Q312.8 159.2 312 159.2Q310.9 159.2 310.2 158.6Q309.6 158 309.6 157Q309.6 156.3 309.9 155.8Q310.3 155.4 310.9 155.1Q311.6 154.9 312.7 154.9H314.1V154.2Q314.1 153.4 313.7 153Q313.2 152.6 312.4 152.6Q311.7 152.6 311.3 152.9Q310.8 153.2 310.5 153.7L309.9 153Q310.2 152.4 310.8 152Q311.5 151.6 312.4 151.6Q313.7 151.6 314.5 152.3Q315.2 152.9 315.2 154V158H316V159ZM314.1 155.7H312.6Q311.7 155.7 311.2 156Q310.8 156.3 310.8 156.8V157.1Q310.8 157.6 311.2 157.9Q311.5 158.2 312.2 158.2Q312.7 158.2 313.2 158Q313.6 157.9 313.8 157.6Q314.1 157.3 314.1 156.9V155.7Z"/><path fill="#1F2328" d="M19.8 180V178.8H19.8Q19.4 179.5 18.9 179.8Q18.4 180.2 17.6 180.2Q16.7 180.2 16.1 179.7Q15.4 179.2 15.1 178.4Q14.7 177.5 14.7 176.4Q14.7 175.2 15.1 174.4Q15.4 173.5 16.1 173.1Q16.7 172.6 17.6 172.6Q18.4 172.6 18.9 172.9Q19.5 173.3 19.8 174H19.8V169.6H20.9V180H19.8ZM17.9 179.2Q18.5 179.2 18.9 179Q19.3 178.8 19.6 178.5Q19.8 178.2 19.8 177.7V175Q19.8 174.6 19.6 174.3Q19.3 174 18.9 173.8Q18.5 173.6 17.9 173.6Q17 173.6 16.5 174.2Q15.9 174.8 15.9 175.8V177Q15.9 178 16.5 178.6Q17 179.2 17.9 179.2ZM26 180.2Q25 180.2 24.3 179.7Q23.6 179.2 23.2 178.4Q22.8 177.5 22.8 176.4Q22.8 175.2 23.2 174.4Q23.6 173.5 24.3 173.1Q25 172.6 26 172.6Q27 172.6 27.7 173.1Q28.4 173.5 28.8 174.3Q29.1 175.1 29.1 176.1V176.7H24V177Q24 177.9 24.5 178.6Q25.1 179.2 26.1 179.2Q26.8 179.2 27.3 178.9Q27.8 178.5 28.1 177.9L28.9 178.5Q28.5 179.2 27.8 179.7Q27 180.2 26 180.2ZM26 173.5Q25.4 173.5 25 173.8Q24.5 174.1 24.2 174.6Q24 175.1 24 175.7V175.8H27.9V175.7Q27.9 175 27.7 174.6Q27.5 174.1 27 173.8Q26.6 173.5 26 173.5ZM34.7 180V173.8H33.5V172.8H34.7V171.3Q34.7 170.6 35.1 170.1Q35.5 169.6 36.3 169.6H37.4V170.6H35.8V172.8H37.4V173.8H35.8V180H34.7ZM43.3 180V178.8H43.2Q43 179.3 42.6 179.8Q42.1 180.2 41.2 180.2Q40.1 180.2 39.4 179.4Q38.8 178.7 38.8 177.4V172.8H39.9V177.2Q39.9 178.2 40.3 178.7Q40.7 179.2 41.5 179.2Q42 179.2 42.4 179Q42.8 178.9 43 178.6Q43.3 178.2 43.3 177.8V172.8H44.4V180H43.3ZM52.9 180.8Q52.9 181.5 52.5 182Q52.1 182.5 51.3 182.7Q50.5 183 49.4 183Q48.3 183 47.6 182.8Q46.8 182.5 46.5 182.1Q46.2 181.8 46.2 181.2Q46.2 180.6 46.5 180.3Q46.8 179.9 47.3 179.8V179.6Q47 179.5 46.9 179.2Q46.7 179 46.7 178.6Q46.7 178.1 47.1 177.8Q47.4 177.5 47.9 177.4V177.3Q47.3 177 46.9 176.4Q46.6 175.9 46.6 175.1Q46.6 174.4 46.9 173.8Q47.3 173.2 47.9 172.9Q48.5 172.6 49.3 172.6Q49.7 172.6 50 172.7Q50.4 172.7 50.7 172.9V172.8Q50.7 172.3 50.9 172.1Q51.1 171.8 51.5 171.8H52.6V172.8H51.2V173.2Q51.6 173.6 51.8 174.1Q52.1 174.5 52.1 175.1Q52.1 175.8 51.7 176.4Q51.4 177 50.8 177.3Q50.1 177.6 49.3 177.6Q49.1 177.6 49 177.6Q48.8 177.6 48.6 177.5Q48.3 177.6 48 177.8Q47.7 178 47.7 178.3Q47.7 178.7 48 178.8Q48.3 178.9 48.8 178.9H50.3Q51.7 178.9 52.3 179.4Q52.9 179.9 52.9 180.8ZM51.8 180.9Q51.8 180.4 51.5 180.2Q51.2 179.9 50.3 179.9H47.9Q47.6 180.1 47.4 180.3Q47.2 180.6 47.2 180.9Q47.2 181.4 47.6 181.7Q48 182.1 48.8 182.1H49.9Q50.8 182.1 51.3 181.8Q51.8 181.5 51.8 180.9ZM49.3 176.7Q50 176.7 50.5 176.4Q50.9 176 50.9 175.3V174.9Q50.9 174.2 50.5 173.8Q50 173.5 49.3 173.5Q48.6 173.5 48.2 173.8Q47.8 174.2 47.8 174.9V175.3Q47.8 176 48.2 176.4Q48.6 176.7 49.3 176.7ZM60 180H59.4Q58.9 180 58.7 179.8Q58.4 179.6 58.3 179.3Q58.1 178.9 58.1 178.5V178.4L58.6 178.8H58.1Q57.8 179.5 57.3 179.8Q56.7 180.2 56 180.2Q54.8 180.2 54.2 179.6Q53.6 179 53.6 178Q53.6 177.3 53.9 176.8Q54.2 176.4 54.9 176.1Q55.6 175.9 56.6 175.9H58.1V175.2Q58.1 174.4 57.7 174Q57.2 173.6 56.4 173.6Q55.7 173.6 55.3 173.9Q54.8 174.2 54.5 174.7L53.9 174Q54.2 173.4 54.8 173Q55.4 172.6 56.4 172.6Q57.7 172.6 58.5 173.3Q59.2 173.9 59.2 175V179H60V180ZM58.1 176.7H56.6Q55.6 176.7 55.2 177Q54.7 177.3 54.7 177.8V178.1Q54.7 178.6 55.1 178.9Q55.5 179.2 56.2 179.2Q56.7 179.2 57.2 179Q57.6 178.9 57.8 178.6Q58.1 178.3 58.1 177.9V176.7ZM69.5 180V178.8H69.5Q69.2 179.5 68.6 179.8Q68.1 180.2 67.4 180.2Q66.5 180.2 65.8 179.7Q65.1 179.2 64.8 178.4Q64.4 177.5 64.4 176.4Q64.4 175.2 64.8 174.4Q65.1 173.5 65.8 173.1Q66.5 172.6 67.4 172.6Q68.1 172.6 68.7 172.9Q69.2 173.3 69.5 174H69.5V169.6H70.7V180H69.5ZM67.7 179.2Q68.2 179.2 68.6 179Q69 178.8 69.3 178.5Q69.5 178.2 69.5 177.7V175Q69.5 174.6 69.3 174.3Q69 174 68.6 173.8Q68.2 173.6 67.7 173.6Q66.7 173.6 66.2 174.2Q65.6 174.8 65.6 175.8V177Q65.6 178 66.2 178.6Q66.7 179.2 67.7 179.2ZM75.8 180.2Q74.8 180.2 74 179.7Q73.3 179.2 72.9 178.4Q72.5 177.5 72.5 176.4Q72.5 175.2 72.9 174.4Q73.3 173.5 74 173.1Q74.8 172.6 75.8 172.6Q76.7 172.6 77.4 173.1Q78.1 173.5 78.5 174.3Q78.9 175.1 78.9 176.1V176.7H73.7V177Q73.7 177.9 74.2 178.6Q74.8 179.2 75.8 179.2Q76.5 179.2 77 178.9Q77.5 178.5 77.8 177.9L78.6 178.5Q78.3 179.2 77.5 179.7Q76.8 180.2 75.8 180.2ZM75.8 173.5Q75.2 173.5 74.7 173.8Q74.2 174.1 73.9 174.6Q73.7 175.1 73.7 175.7V175.8H77.7V175.7Q77.7 175 77.4 174.6Q77.2 174.1 76.8 173.8Q76.3 173.5 75.8 173.5ZM88.6 180V178.8H88.6Q88.3 179.5 87.7 179.8Q87.2 180.2 86.5 180.2Q85.6 180.2 84.9 179.7Q84.3 179.2 83.9 178.4Q83.5 177.5 83.5 176.4Q83.5 175.2 83.9 174.4Q84.3 173.5 84.9 173.1Q85.6 172.6 86.5 172.6Q87.2 172.6 87.8 172.9Q88.3 173.3 88.6 174H88.6V169.6H89.8V180H88.6ZM86.8 179.2Q87.3 179.2 87.7 179Q88.1 178.8 88.4 178.5Q88.6 178.2 88.6 177.7V175Q88.6 174.6 88.4 174.3Q88.1 174 87.7 173.8Q87.3 173.6 86.8 173.6Q85.8 173.6 85.3 174.2Q84.7 174.8 84.7 175.8V177Q84.7 178 85.3 178.6Q85.8 179.2 86.8 179.2ZM98 180H97.4Q97 180 96.7 179.8Q96.4 179.6 96.3 179.3Q96.1 178.9 96.1 178.5V178.4L96.6 178.8H96.1Q95.9 179.5 95.3 179.8Q94.8 180.2 94 180.2Q92.8 180.2 92.2 179.6Q91.6 179 91.6 178Q91.6 177.3 91.9 176.8Q92.2 176.4 92.9 176.1Q93.6 175.9 94.7 175.9H96.1V175.2Q96.1 174.4 95.7 174Q95.2 173.6 94.4 173.6Q93.7 173.6 93.3 173.9Q92.8 174.2 92.5 174.7L91.9 174Q92.2 173.4 92.8 173Q93.5 172.6 94.4 172.6Q95.7 172.6 96.5 173.3Q97.2 173.9 97.2 175V179H98V180ZM96.1 176.7H94.6Q93.6 176.7 93.2 177Q92.8 177.3 92.8 177.8V178.1Q92.8 178.6 93.1 178.9Q93.5 179.2 94.2 179.2Q94.7 179.2 95.2 179Q95.6 178.9 95.8 178.6Q96.1 178.3 96.1 177.9V176.7ZM102.6 180H101.2Q100.6 180 100.3 179.7Q100 179.3 100 178.8V173.8H98.8V172.8H99.5Q99.9 172.8 100 172.6Q100.1 172.5 100.1 172.1V170.8H101.1V172.8H102.7V173.8H101.1V179H102.6V180ZM107.2 180.2Q106.2 180.2 105.5 179.7Q104.8 179.2 104.4 178.4Q104 177.5 104 176.4Q104 175.2 104.4 174.4Q104.8 173.5 105.5 173.1Q106.2 172.6 107.2 172.6Q108.2 172.6 108.9 173.1Q109.6 173.5 110.1 174.4Q110.5 175.2 110.5 176.4Q110.5 177.5 110.1 178.4Q109.6 179.2 108.9 179.7Q108.2 180.2 107.2 180.2ZM107.2 179.2Q108.1 179.2 108.7 178.6Q109.3 178.1 109.3 176.9V175.9Q109.3 174.7 108.7 174.2Q108.1 173.6 107.2 173.6Q106.3 173.6 105.7 174.2Q105.2 174.7 105.2 175.9V176.9Q105.2 178.1 105.7 178.6Q106.3 179.2 107.2 179.2ZM114.5 180.2Q113.5 180.2 112.8 179.8Q112.1 179.4 111.6 178.8L112.4 178.1Q112.9 178.6 113.4 178.9Q113.9 179.2 114.6 179.2Q115.3 179.2 115.7 178.9Q116.1 178.6 116.1 178Q116.1 177.6 115.8 177.3Q115.5 177 114.8 176.9L114.3 176.8Q113.6 176.7 113.1 176.5Q112.5 176.3 112.2 175.8Q111.9 175.4 111.9 174.7Q111.9 173.7 112.7 173.1Q113.4 172.6 114.5 172.6Q115.1 172.6 115.5 172.7Q116 172.9 116.4 173.1Q116.7 173.4 117 173.8L116.3 174.4Q116 174.1 115.6 173.8Q115.1 173.6 114.4 173.6Q113.7 173.6 113.4 173.9Q113 174.2 113 174.7Q113 175.2 113.4 175.4Q113.7 175.7 114.4 175.8L115 175.9Q116.2 176.1 116.7 176.6Q117.2 177.1 117.2 177.9Q117.2 178.6 116.8 179.1Q116.5 179.6 115.9 179.9Q115.3 180.2 114.5 180.2ZM119.8 180.2Q119.3 180.2 119.1 179.9Q118.9 179.7 118.9 179.4V179.2Q118.9 178.8 119.1 178.6Q119.3 178.4 119.8 178.4Q120.2 178.4 120.4 178.6Q120.6 178.8 120.6 179.2V179.4Q120.6 179.7 120.4 179.9Q120.2 180.2 119.8 180.2ZM129 180.2Q127.9 180.2 127 179.7Q126.2 179.3 125.6 178.5L126.4 177.7Q127 178.4 127.6 178.8Q128.2 179.1 129.1 179.1Q130.1 179.1 130.7 178.6Q131.2 178.1 131.2 177.3Q131.2 176.8 131.1 176.5Q130.9 176.2 130.5 176Q130.1 175.7 129.4 175.6L128.6 175.4Q127.8 175.2 127.1 174.9Q126.5 174.5 126.2 174Q125.9 173.5 125.9 172.7Q125.9 171.9 126.3 171.3Q126.7 170.7 127.4 170.4Q128.2 170.1 129.1 170.1Q130.2 170.1 131 170.5Q131.8 170.9 132.3 171.7L131.5 172.3Q131.1 171.7 130.5 171.4Q129.9 171.1 129.1 171.1Q128.1 171.1 127.6 171.5Q127 171.9 127 172.7Q127 173.2 127.2 173.5Q127.4 173.8 127.8 174Q128.3 174.2 128.9 174.3L129.7 174.5Q130.6 174.7 131.2 175.1Q131.8 175.4 132.1 176Q132.4 176.5 132.4 177.2Q132.4 178.1 132 178.8Q131.6 179.4 130.8 179.8Q130.1 180.2 129 180.2ZM137 180.2Q136.1 180.2 135.3 179.7Q134.6 179.2 134.2 178.4Q133.8 177.5 133.8 176.4Q133.8 175.2 134.2 174.4Q134.6 173.5 135.3 173.1Q136.1 172.6 137 172.6Q138 172.6 138.7 173.1Q139.4 173.5 139.8 174.3Q140.2 175.1 140.2 176.1V176.7H135V177Q135 177.9 135.5 178.6Q136.1 179.2 137.1 179.2Q137.8 179.2 138.3 178.9Q138.8 178.5 139.1 177.9L139.9 178.5Q139.5 179.2 138.8 179.7Q138.1 180.2 137 180.2ZM137 173.5Q136.4 173.5 136 173.8Q135.5 174.1 135.2 174.6Q135 175.1 135 175.7V175.8H139V175.7Q139 175 138.7 174.6Q138.5 174.1 138 173.8Q137.6 173.5 137 173.5ZM143.1 180H142V172.8H143.1V174H143.2Q143.4 173.4 143.9 173Q144.3 172.6 145.1 172.6Q145.8 172.6 146.4 173Q147 173.3 147.3 174.1H147.4Q147.6 173.5 148.1 173Q148.6 172.6 149.6 172.6Q150.7 172.6 151.3 173.3Q151.9 174.1 151.9 175.4V180H150.8V175.6Q150.8 174.6 150.4 174.1Q150 173.6 149.2 173.6Q148.8 173.6 148.4 173.8Q148 173.9 147.8 174.2Q147.5 174.5 147.5 175V180H146.4V175.6Q146.4 174.6 146 174.1Q145.6 173.6 144.8 173.6Q144.4 173.6 144 173.8Q143.6 173.9 143.4 174.2Q143.1 174.5 143.1 175V180ZM154.8 171.1Q154.4 171.1 154.3 170.9Q154.1 170.7 154.1 170.5V170.3Q154.1 170 154.3 169.8Q154.4 169.6 154.8 169.6Q155.1 169.6 155.3 169.8Q155.5 170 155.5 170.3V170.5Q155.5 170.7 155.3 170.9Q155.1 171.1 154.8 171.1ZM154.2 180V172.8H155.3V180H154.2ZM159.9 180H158.9Q158.3 180 158 179.7Q157.7 179.3 157.7 178.8V169.6H158.8V179H159.9V180ZM163.6 180H162.7Q162.1 180 161.8 179.7Q161.5 179.3 161.5 178.8V169.6H162.6V179H163.6V180ZM168 180.2Q167 180.2 166.3 179.7Q165.6 179.2 165.1 178.4Q164.7 177.5 164.7 176.4Q164.7 175.2 165.1 174.4Q165.6 173.5 166.3 173.1Q167 172.6 168 172.6Q169 172.6 169.7 173.1Q170.4 173.5 170.7 174.3Q171.1 175.1 171.1 176.1V176.7H165.9V177Q165.9 177.9 166.5 178.6Q167 179.2 168.1 179.2Q168.7 179.2 169.3 178.9Q169.8 178.5 170 177.9L170.8 178.5Q170.5 179.2 169.8 179.7Q169 180.2 168 180.2ZM168 173.5Q167.4 173.5 166.9 173.8Q166.4 174.1 166.2 174.6Q165.9 175.1 165.9 175.7V175.8H169.9V175.7Q169.9 175 169.7 174.6Q169.4 174.1 169 173.8Q168.6 173.5 168 173.5ZM174.1 180H173V172.8H174.1V174.1H174.1Q174.3 173.8 174.5 173.5Q174.8 173.2 175.2 173Q175.6 172.8 176.2 172.8H176.7V173.9H176Q175.4 173.9 175 174.1Q174.5 174.2 174.3 174.5Q174.1 174.8 174.1 175.1V180ZM180.8 180.2Q179.8 180.2 179.1 179.7Q178.3 179.2 177.9 178.4Q177.5 177.5 177.5 176.4Q177.5 175.2 177.9 174.4Q178.3 173.5 179.1 173.1Q179.8 172.6 180.8 172.6Q181.7 172.6 182.5 173.1Q183.2 173.5 183.6 174.4Q184 175.2 184 176.4Q184 177.5 183.6 178.4Q183.2 179.2 182.5 179.7Q181.7 180.2 180.8 180.2ZM180.8 179.2Q181.7 179.2 182.2 178.6Q182.8 178.1 182.8 176.9V175.9Q182.8 174.7 182.2 174.2Q181.7 173.6 180.8 173.6Q179.9 173.6 179.3 174.2Q178.7 174.7 178.7 175.9V176.9Q178.7 178.1 179.3 178.6Q179.9 179.2 180.8 179.2ZM195.7 171.3H192.6V180H191.4V171.3H188.3V170.2H195.7V171.3ZM200.6 180H196.7V179H198.1V171.2H196.7V170.2H200.6V171.2H199.3V179H200.6V180ZM203.4 178.4Q203.8 178.4 204 178.6Q204.2 178.8 204.2 179.2V179.4Q204.2 179.9 203.9 180.6Q203.6 181.3 203 181.9H202Q202.5 181.4 202.7 181Q203 180.6 203.1 180.1Q202.8 180.1 202.7 179.9Q202.5 179.7 202.5 179.4V179.2Q202.5 178.8 202.7 178.6Q203 178.4 203.4 178.4ZM209.8 170.2H211V176.3Q211 177.2 211.2 177.8Q211.5 178.5 212 178.8Q212.5 179.1 213.3 179.1Q214.2 179.1 214.7 178.8Q215.2 178.5 215.5 177.8Q215.7 177.2 215.7 176.3V170.2H216.9V176Q216.9 177.4 216.5 178.3Q216.2 179.3 215.4 179.7Q214.6 180.2 213.3 180.2Q212 180.2 211.2 179.7Q210.5 179.3 210.2 178.3Q209.8 177.4 209.8 176V170.2ZM220.4 180H219.3V172.8H220.4V174H220.5Q220.7 173.3 221.2 173Q221.7 172.6 222.5 172.6Q223.6 172.6 224.3 173.3Q224.9 174.1 224.9 175.4V180H223.8V175.6Q223.8 174.6 223.4 174.1Q223 173.6 222.2 173.6Q221.7 173.6 221.3 173.8Q220.9 173.9 220.7 174.2Q220.4 174.5 220.4 175V180ZM227.8 171.1Q227.4 171.1 227.3 170.9Q227.1 170.7 227.1 170.5V170.3Q227.1 170 227.3 169.8Q227.4 169.6 227.8 169.6Q228.2 169.6 228.3 169.8Q228.5 170 228.5 170.3V170.5Q228.5 170.7 228.3 170.9Q228.2 171.1 227.8 171.1ZM227.2 180V172.8H228.4V180H227.2ZM233.6 180H232.3L229.8 172.8H230.9L232.2 176.4L233 178.8H233L233.8 176.4L235.1 172.8H236.2L233.6 180ZM240.2 180.2Q239.2 180.2 238.5 179.7Q237.8 179.2 237.4 178.4Q237 177.5 237 176.4Q237 175.2 237.4 174.4Q237.8 173.5 238.5 173.1Q239.2 172.6 240.2 172.6Q241.2 172.6 241.9 173.1Q242.6 173.5 243 174.3Q243.3 175.1 243.3 176.1V176.7H238.2V177Q238.2 177.9 238.7 178.6Q239.3 179.2 240.3 179.2Q241 179.2 241.5 178.9Q242 178.5 242.3 177.9L243.1 178.5Q242.7 179.2 242 179.7Q241.2 180.2 240.2 180.2ZM240.2 173.5Q239.6 173.5 239.2 173.8Q238.7 174.1 238.4 174.6Q238.2 175.1 238.2 175.7V175.8H242.1V175.7Q242.1 175 241.9 174.6Q241.7 174.1 241.2 173.8Q240.8 173.5 240.2 173.5ZM246.3 180H245.2V172.8H246.3V174.1H246.4Q246.5 173.8 246.8 173.5Q247 173.2 247.5 173Q247.9 172.8 248.5 172.8H248.9V173.9H248.2Q247.6 173.9 247.2 174.1Q246.8 174.2 246.5 174.5Q246.3 174.8 246.3 175.1V180ZM252.5 180.2Q251.5 180.2 250.8 179.8Q250.1 179.4 249.6 178.8L250.4 178.1Q250.9 178.6 251.4 178.9Q251.9 179.2 252.6 179.2Q253.3 179.2 253.7 178.9Q254.1 178.6 254.1 178Q254.1 177.6 253.8 177.3Q253.6 177 252.8 176.9L252.3 176.8Q251.6 176.7 251.1 176.5Q250.5 176.3 250.2 175.8Q249.9 175.4 249.9 174.7Q249.9 173.7 250.7 173.1Q251.4 172.6 252.5 172.6Q253.1 172.6 253.6 172.7Q254 172.9 254.4 173.1Q254.7 173.4 255 173.8L254.3 174.4Q254.1 174.1 253.6 173.8Q253.1 173.6 252.4 173.6Q251.7 173.6 251.4 173.9Q251 174.2 251 174.7Q251 175.2 251.4 175.4Q251.7 175.7 252.4 175.8L253 175.9Q254.2 176.1 254.7 176.6Q255.2 177.1 255.2 177.9Q255.2 178.6 254.9 179.1Q254.5 179.6 253.9 179.9Q253.3 180.2 252.5 180.2ZM257.7 171.1Q257.4 171.1 257.2 170.9Q257 170.7 257 170.5V170.3Q257 170 257.2 169.8Q257.4 169.6 257.7 169.6Q258.1 169.6 258.2 169.8Q258.4 170 258.4 170.3V170.5Q258.4 170.7 258.2 170.9Q258.1 171.1 257.7 171.1ZM257.2 180V172.8H258.3V180H257.2ZM265.3 180V178.8H265.2Q264.9 179.5 264.4 179.8Q263.8 180.2 263.1 180.2Q262.2 180.2 261.5 179.7Q260.9 179.2 260.5 178.4Q260.2 177.5 260.2 176.4Q260.2 175.2 260.5 174.4Q260.9 173.5 261.5 173.1Q262.2 172.6 263.1 172.6Q263.8 172.6 264.4 172.9Q264.9 173.3 265.2 174H265.3V169.6H266.4V180H265.3ZM263.4 179.2Q263.9 179.2 264.3 179Q264.8 178.8 265 178.5Q265.3 178.2 265.3 177.7V175Q265.3 174.6 265 174.3Q264.8 174 264.3 173.8Q263.9 173.6 263.4 173.6Q262.5 173.6 261.9 174.2Q261.4 174.8 261.4 175.8V177Q261.4 178 261.9 178.6Q262.5 179.2 263.4 179.2ZM274.7 180H274Q273.6 180 273.3 179.8Q273 179.6 272.9 179.3Q272.8 178.9 272.8 178.5V178.4L273.2 178.8H272.7Q272.5 179.5 271.9 179.8Q271.4 180.2 270.6 180.2Q269.5 180.2 268.8 179.6Q268.2 179 268.2 178Q268.2 177.3 268.5 176.8Q268.9 176.4 269.5 176.1Q270.2 175.9 271.3 175.9H272.7V175.2Q272.7 174.4 272.3 174Q271.9 173.6 271 173.6Q270.4 173.6 269.9 173.9Q269.5 174.2 269.2 174.7L268.5 174Q268.8 173.4 269.4 173Q270.1 172.6 271.1 172.6Q272.4 172.6 273.1 173.3Q273.8 173.9 273.8 175V179H274.7V180ZM272.7 176.7H271.2Q270.3 176.7 269.8 177Q269.4 177.3 269.4 177.8V178.1Q269.4 178.6 269.8 178.9Q270.2 179.2 270.8 179.2Q271.4 179.2 271.8 179Q272.2 178.9 272.5 178.6Q272.7 178.3 272.7 177.9V176.7ZM280.9 180V178.8H280.8Q280.5 179.5 280 179.8Q279.4 180.2 278.7 180.2Q277.8 180.2 277.1 179.7Q276.5 179.2 276.1 178.4Q275.8 177.5 275.8 176.4Q275.8 175.2 276.1 174.4Q276.5 173.5 277.1 173.1Q277.8 172.6 278.7 172.6Q279.4 172.6 280 172.9Q280.5 173.3 280.8 174H280.9V169.6H282V180H280.9ZM279 179.2Q279.5 179.2 279.9 179Q280.4 178.8 280.6 178.5Q280.9 178.2 280.9 177.7V175Q280.9 174.6 280.6 174.3Q280.4 174 279.9 173.8Q279.5 173.6 279 173.6Q278.1 173.6 277.5 174.2Q277 174.8 277 175.8V177Q277 178 277.5 178.6Q278.1 179.2 279 179.2ZM293.1 180H287.8V170.2H289V179H293.1V180ZM295.2 171.1Q294.9 171.1 294.7 170.9Q294.6 170.7 294.6 170.5V170.3Q294.6 170 294.7 169.8Q294.9 169.6 295.2 169.6Q295.6 169.6 295.8 169.8Q295.9 170 295.9 170.3V170.5Q295.9 170.7 295.8 170.9Q295.6 171.1 295.2 171.1ZM294.7 180V172.8H295.8V180H294.7ZM298.2 180V169.6H299.3V174H299.4Q299.6 173.3 300.2 172.9Q300.7 172.6 301.5 172.6Q302.4 172.6 303 173.1Q303.7 173.5 304.1 174.4Q304.4 175.2 304.4 176.4Q304.4 177.5 304.1 178.4Q303.7 179.2 303 179.7Q302.4 180.2 301.5 180.2Q300.7 180.2 300.2 179.8Q299.7 179.5 299.4 178.8H299.3V180H298.2ZM301.2 179.2Q302.1 179.2 302.7 178.6Q303.2 178 303.2 177V175.8Q303.2 174.8 302.7 174.2Q302.1 173.6 301.2 173.6Q300.7 173.6 300.2 173.8Q299.8 174 299.6 174.3Q299.3 174.6 299.3 175V177.7Q299.3 178.2 299.6 178.5Q299.8 178.8 300.2 179Q300.7 179.2 301.2 179.2ZM307.4 180H306.3V172.8H307.4V174.1H307.5Q307.6 173.8 307.9 173.5Q308.2 173.2 308.6 173Q309 172.8 309.6 172.8H310V173.9H309.4Q308.8 173.9 308.3 174.1Q307.9 174.2 307.7 174.5Q307.4 174.8 307.4 175.1V180ZM314.1 180.2Q313.1 180.2 312.4 179.7Q311.7 179.2 311.2 178.4Q310.8 177.5 310.8 176.4Q310.8 175.2 311.2 174.4Q311.7 173.5 312.4 173.1Q313.1 172.6 314.1 172.6Q315.1 172.6 315.8 173.1Q316.5 173.5 316.8 174.3Q317.2 175.1 317.2 176.1V176.7H312V177Q312 177.9 312.6 178.6Q313.2 179.2 314.2 179.2Q314.8 179.2 315.4 178.9Q315.9 178.5 316.1 177.9L316.9 178.5Q316.6 179.2 315.9 179.7Q315.1 180.2 314.1 180.2ZM314.1 173.5Q313.5 173.5 313 173.8Q312.6 174.1 312.3 174.6Q312 175.1 312 175.7V175.8H316V175.7Q316 175 315.8 174.6Q315.5 174.1 315.1 173.8Q314.7 173.5 314.1 173.5ZM319.5 180.2Q319.1 180.2 318.9 179.9Q318.6 179.7 318.6 179.4V179.2Q318.6 178.8 318.9 178.6Q319.1 178.4 319.5 178.4Q319.9 178.4 320.1 178.6Q320.3 178.8 320.3 179.2V179.4Q320.3 179.7 320.1 179.9Q319.9 180.2 319.5 180.2Z"/></g><path class="d" pathLength="1" style="animation-delay:0.58s" d="M1 206L459 206" stroke="#D0D7DE" stroke-width="1" fill="none"/><g class="u" style="animation-delay:0.63s"><path fill="#59636E" d="M14.9 227V219.7H19.5V220.4H15.8V222.9H19.3V223.7H15.8V226.2H19.5V227H14.9ZM26.3 227H25.3L24.5 225.5L23.5 223.9H23.5L22.5 225.5L21.5 227H20.6L23 223.3L20.7 219.7H21.7L22.6 221.1L23.5 222.6H23.5L24.4 221.1L25.3 219.7H26.3L24 223.3L26.3 227ZM31.7 227 31 224.9H28.5L27.8 227H26.9L29.2 219.7H30.3L32.6 227H31.7ZM29.8 220.6H29.7L28.7 224.1H30.8L29.8 220.6ZM36.3 227.1Q34.9 227.1 34.3 226.1Q33.6 225.2 33.6 223.3Q33.6 221.5 34.3 220.5Q34.9 219.5 36.3 219.5Q36.8 219.5 37.2 219.7Q37.5 219.8 37.8 220Q38.1 220.3 38.2 220.6Q38.4 220.9 38.5 221.2L37.8 221.5Q37.7 221.3 37.6 221Q37.4 220.8 37.3 220.7Q37.1 220.5 36.9 220.4Q36.6 220.3 36.3 220.3Q35.4 220.3 35 221Q34.6 221.6 34.6 222.7V223.9Q34.6 225 35 225.7Q35.4 226.4 36.3 226.4Q36.6 226.4 36.9 226.3Q37.1 226.2 37.3 226Q37.4 225.8 37.6 225.6Q37.7 225.4 37.8 225.2L38.5 225.5Q38.4 225.8 38.2 226.1Q38.1 226.4 37.8 226.6Q37.5 226.9 37.2 227Q36.8 227.1 36.3 227.1ZM42.8 220.4V227H41.9V220.4H39.5V219.7H45.2V220.4H42.8ZM46.4 227V226.3H48.2V220.4H46.4V219.7H50.9V220.4H49.1V226.3H50.9V227H46.4ZM55.4 220.4V227H54.5V220.4H52.1V219.7H57.8V220.4H55.4ZM59.8 219.7V224.1Q59.8 224.6 59.9 225Q59.9 225.4 60 225.7Q60.2 226 60.4 226.2Q60.7 226.4 61.2 226.4Q61.8 226.4 62.1 226.2Q62.3 226 62.5 225.7Q62.6 225.4 62.6 225Q62.7 224.6 62.7 224.1V219.7H63.6V223.9Q63.6 224.7 63.5 225.3Q63.4 225.9 63.2 226.3Q62.9 226.7 62.5 226.9Q62 227.1 61.2 227.1Q60.5 227.1 60 226.9Q59.6 226.7 59.3 226.3Q59.1 225.9 59 225.3Q58.9 224.7 58.9 223.9V219.7H59.8ZM65.4 219.7H67.4Q68.8 219.7 69.5 220.6Q70.1 221.5 70.1 223.3Q70.1 225.2 69.5 226.1Q68.8 227 67.4 227H65.4V219.7ZM67.4 226.2Q68.3 226.2 68.7 225.6Q69.2 225 69.2 223.9V222.8Q69.2 221.7 68.7 221Q68.3 220.4 67.4 220.4H66.3V226.2H67.4ZM78 219.7H80Q81.4 219.7 82.1 220.6Q82.7 221.5 82.7 223.3Q82.7 225.2 82.1 226.1Q81.4 227 80 227H78V219.7ZM80 226.2Q80.9 226.2 81.3 225.6Q81.8 225 81.8 223.9V222.8Q81.8 221.7 81.3 221Q80.9 220.4 80 220.4H78.9V226.2H80ZM84.2 227V219.7H88.8V220.4H85.1V222.9H88.6V223.7H85.1V226.2H88.8V227H84.2ZM90.9 227V219.7H91.7V226.2H95.2V227H90.9ZM105.6 227.1Q104.2 227.1 103.6 226.1Q102.9 225.2 102.9 223.3Q102.9 221.5 103.6 220.5Q104.2 219.5 105.6 219.5Q106.1 219.5 106.5 219.7Q106.8 219.8 107.1 220Q107.4 220.3 107.5 220.6Q107.7 220.9 107.8 221.2L107.1 221.5Q107 221.3 106.9 221Q106.7 220.8 106.6 220.7Q106.4 220.5 106.2 220.4Q105.9 220.3 105.6 220.3Q104.7 220.3 104.3 221Q103.9 221.6 103.9 222.7V223.9Q103.9 225 104.3 225.7Q104.7 226.4 105.6 226.4Q105.9 226.4 106.2 226.3Q106.4 226.2 106.6 226Q106.7 225.8 106.9 225.6Q107 225.4 107.1 225.2L107.8 225.5Q107.7 225.8 107.5 226.1Q107.4 226.4 107.1 226.6Q106.8 226.9 106.5 227Q106.1 227.1 105.6 227.1ZM109.8 227V219.7H110.6V226.2H114.1V227H109.8ZM119.9 227 119.2 224.9H116.7L116 227H115.1L117.4 219.7H118.5L120.8 227H119.9ZM118 220.6H117.9L116.9 224.1H119L118 220.6ZM124.2 227.1Q123.2 227.1 122.6 226.8Q122 226.4 121.6 225.8L122.2 225.3Q122.6 225.8 123.1 226.1Q123.6 226.4 124.3 226.4Q125.1 226.4 125.5 226Q125.9 225.6 125.9 225Q125.9 224.4 125.6 224.1Q125.3 223.8 124.5 223.7L123.7 223.6Q123.2 223.5 122.8 223.3Q122.5 223.1 122.2 222.8Q122 222.6 121.9 222.2Q121.8 221.9 121.8 221.6Q121.8 220.6 122.5 220.1Q123.1 219.5 124.3 219.5Q125.2 219.5 125.8 219.8Q126.4 220.1 126.7 220.7L126.1 221.2Q125.8 220.8 125.4 220.6Q124.9 220.3 124.3 220.3Q123.5 220.3 123.1 220.6Q122.7 220.9 122.7 221.6Q122.7 222.1 123 222.4Q123.3 222.7 124.1 222.8L124.9 222.9Q125.4 223 125.8 223.2Q126.2 223.4 126.4 223.7Q126.6 223.9 126.7 224.3Q126.8 224.6 126.8 225Q126.8 226 126.1 226.5Q125.5 227.1 124.2 227.1ZM128.3 227V226.3H130.1V220.4H128.3V219.7H132.8V220.4H131V226.3H132.8V227H128.3ZM134.6 227V219.7H139.3V220.4H135.5V222.9H138.9V223.7H135.5V227H134.6ZM140.9 227V226.3H142.7V220.4H140.9V219.7H145.4V220.4H143.6V226.3H145.4V227H140.9ZM149.7 227.1Q148.3 227.1 147.7 226.1Q147 225.2 147 223.3Q147 221.5 147.7 220.5Q148.3 219.5 149.7 219.5Q150.2 219.5 150.6 219.7Q150.9 219.8 151.2 220Q151.5 220.3 151.6 220.6Q151.8 220.9 151.9 221.2L151.2 221.5Q151.1 221.3 151 221Q150.8 220.8 150.7 220.7Q150.5 220.5 150.3 220.4Q150 220.3 149.7 220.3Q148.8 220.3 148.4 221Q148 221.6 148 222.7V223.9Q148 225 148.4 225.7Q148.8 226.4 149.7 226.4Q150 226.4 150.3 226.3Q150.5 226.2 150.7 226Q150.8 225.8 151 225.6Q151.1 225.4 151.2 225.2L151.9 225.5Q151.8 225.8 151.6 226.1Q151.5 226.4 151.2 226.6Q150.9 226.9 150.6 227Q150.2 227.1 149.7 227.1ZM157.7 227 157 224.9H154.5L153.8 227H152.9L155.2 219.7H156.3L158.6 227H157.7ZM155.8 220.6H155.7L154.7 224.1H156.8L155.8 220.6ZM159.9 219.7H161.9Q163.3 219.7 164 220.6Q164.6 221.5 164.6 223.3Q164.6 225.2 164 226.1Q163.3 227 161.9 227H159.9V219.7ZM161.9 226.2Q162.8 226.2 163.2 225.6Q163.7 225 163.7 223.9V222.8Q163.7 221.7 163.2 221Q162.8 220.4 161.9 220.4H160.8V226.2H161.9ZM168.4 227.1Q167.7 227.1 167.2 226.9Q166.7 226.6 166.4 226.1Q166.1 225.6 165.9 224.9Q165.8 224.2 165.8 223.3Q165.8 222.4 165.9 221.7Q166.1 221 166.4 220.5Q166.7 220.1 167.2 219.8Q167.7 219.5 168.4 219.5Q169 219.5 169.5 219.8Q170 220.1 170.3 220.5Q170.6 221 170.8 221.7Q170.9 222.4 170.9 223.3Q170.9 224.2 170.8 224.9Q170.6 225.6 170.3 226.1Q170 226.6 169.5 226.9Q169 227.1 168.4 227.1ZM168.4 226.4Q168.8 226.4 169.1 226.2Q169.4 226 169.6 225.7Q169.8 225.4 169.9 224.9Q170 224.5 170 223.9V222.7Q170 222.2 169.9 221.7Q169.8 221.3 169.6 221Q169.4 220.7 169.1 220.5Q168.8 220.3 168.4 220.3Q167.9 220.3 167.6 220.5Q167.3 220.7 167.1 221Q166.9 221.3 166.8 221.7Q166.7 222.2 166.7 222.7V223.9Q166.7 224.5 166.8 224.9Q166.9 225.4 167.1 225.7Q167.3 226 167.6 226.2Q167.9 226.4 168.4 226.4ZM173.3 227H172.4V219.7H175.1Q176.1 219.7 176.7 220.2Q177.2 220.8 177.2 221.8Q177.2 222.7 176.7 223.2Q176.3 223.7 175.4 223.8L177.3 227H176.3L174.5 223.9H173.3V227ZM175.1 223.1Q175.6 223.1 176 222.8Q176.3 222.6 176.3 222.1V221.5Q176.3 221 176 220.7Q175.6 220.4 175.1 220.4H173.3V223.1H175.1ZM181 227.1Q180.5 227.1 180.3 226.9Q180.2 226.7 180.2 226.5V226.3Q180.2 226 180.3 225.8Q180.5 225.6 181 225.6Q181.4 225.6 181.6 225.8Q181.7 226 181.7 226.3V226.5Q181.7 226.7 181.6 226.9Q181.4 227.1 181 227.1ZM181 222.9Q180.5 222.9 180.3 222.8Q180.2 222.6 180.2 222.3V222.1Q180.2 221.8 180.3 221.7Q180.5 221.5 181 221.5Q181.4 221.5 181.6 221.7Q181.7 221.8 181.7 222.1V222.3Q181.7 222.6 181.6 222.8Q181.4 222.9 181 222.9ZM193.6 227.1Q192.9 227.1 192.4 226.9Q191.9 226.6 191.6 226.1Q191.3 225.6 191.1 224.9Q191 224.2 191 223.3Q191 222.4 191.1 221.7Q191.3 221 191.6 220.5Q191.9 220.1 192.4 219.8Q192.9 219.5 193.6 219.5Q194.2 219.5 194.7 219.8Q195.2 220.1 195.5 220.5Q195.8 221 196 221.7Q196.1 222.4 196.1 223.3Q196.1 224.2 196 224.9Q195.8 225.6 195.5 226.1Q195.2 226.6 194.7 226.9Q194.2 227.1 193.6 227.1ZM193.6 226.4Q194 226.4 194.3 226.2Q194.6 226 194.8 225.7Q195 225.4 195.1 224.9Q195.2 224.5 195.2 223.9V222.7Q195.2 222.2 195.1 221.7Q195 221.3 194.8 221Q194.6 220.7 194.3 220.5Q194 220.3 193.6 220.3Q193.1 220.3 192.8 220.5Q192.5 220.7 192.3 221Q192.1 221.3 192 221.7Q191.9 222.2 191.9 222.7V223.9Q191.9 224.5 192 224.9Q192.1 225.4 192.3 225.7Q192.5 226 192.8 226.2Q193.1 226.4 193.6 226.4ZM193.6 224Q193.2 224 193 223.8Q192.9 223.7 192.9 223.5V223.2Q192.9 223 193 222.9Q193.2 222.7 193.6 222.7Q193.9 222.7 194.1 222.9Q194.2 223 194.2 223.2V223.5Q194.2 223.7 194.1 223.8Q193.9 224 193.6 224ZM199.4 225.6H200.8L199.5 228.5H198.8L199.4 225.6ZM208.6 222.4Q208.6 223.2 208.4 223.9Q208.1 224.6 207.7 225.2Q207.4 225.8 206.9 226.3Q206.4 226.7 206 227H204.8Q205.4 226.6 205.9 226.2Q206.4 225.8 206.7 225.3Q207.1 224.9 207.3 224.3Q207.6 223.8 207.7 223.2L207.7 223.2Q207.4 223.6 207 223.9Q206.5 224.2 205.9 224.2Q205.4 224.2 205 224.1Q204.6 223.9 204.3 223.6Q204 223.3 203.8 222.9Q203.7 222.5 203.7 222Q203.7 221.4 203.8 221Q204 220.5 204.3 220.2Q204.7 219.9 205.1 219.7Q205.6 219.5 206.1 219.5Q206.7 219.5 207.2 219.7Q207.6 219.9 208 220.3Q208.3 220.7 208.5 221.2Q208.6 221.7 208.6 222.4ZM206.2 223.5Q206.9 223.5 207.3 223.1Q207.7 222.7 207.7 221.9V221.9Q207.7 221.1 207.3 220.7Q206.9 220.3 206.2 220.3Q205.4 220.3 205 220.7Q204.6 221.1 204.6 221.9V221.9Q204.6 222.7 205 223.1Q205.4 223.5 206.2 223.5ZM212.5 227.1Q211.8 227.1 211.3 226.9Q210.8 226.6 210.5 226.1Q210.2 225.6 210 224.9Q209.9 224.2 209.9 223.3Q209.9 222.4 210 221.7Q210.2 221 210.5 220.5Q210.8 220.1 211.3 219.8Q211.8 219.5 212.5 219.5Q213.1 219.5 213.6 219.8Q214.1 220.1 214.4 220.5Q214.7 221 214.9 221.7Q215 222.4 215 223.3Q215 224.2 214.9 224.9Q214.7 225.6 214.4 226.1Q214.1 226.6 213.6 226.9Q213.1 227.1 212.5 227.1ZM212.5 226.4Q212.9 226.4 213.2 226.2Q213.5 226 213.7 225.7Q213.9 225.4 214 224.9Q214.1 224.5 214.1 223.9V222.7Q214.1 222.2 214 221.7Q213.9 221.3 213.7 221Q213.5 220.7 213.2 220.5Q212.9 220.3 212.5 220.3Q212 220.3 211.7 220.5Q211.4 220.7 211.2 221Q211 221.3 210.9 221.7Q210.8 222.2 210.8 222.7V223.9Q210.8 224.5 210.9 224.9Q211 225.4 211.2 225.7Q211.4 226 211.7 226.2Q212 226.4 212.5 226.4ZM212.5 224Q212.1 224 211.9 223.8Q211.8 223.7 211.8 223.5V223.2Q211.8 223 211.9 222.9Q212.1 222.7 212.5 222.7Q212.8 222.7 213 222.9Q213.1 223 213.1 223.2V223.5Q213.1 223.7 213 223.8Q212.8 224 212.5 224ZM221.2 222.4Q221.2 223.2 221 223.9Q220.7 224.6 220.3 225.2Q220 225.8 219.5 226.3Q219 226.7 218.6 227H217.4Q218 226.6 218.5 226.2Q219 225.8 219.3 225.3Q219.7 224.9 219.9 224.3Q220.2 223.8 220.3 223.2L220.3 223.2Q220 223.6 219.6 223.9Q219.1 224.2 218.5 224.2Q218 224.2 217.6 224.1Q217.2 223.9 216.9 223.6Q216.6 223.3 216.4 222.9Q216.3 222.5 216.3 222Q216.3 221.4 216.4 221Q216.6 220.5 216.9 220.2Q217.3 219.9 217.7 219.7Q218.2 219.5 218.7 219.5Q219.3 219.5 219.8 219.7Q220.2 219.9 220.6 220.3Q220.9 220.7 221.1 221.2Q221.2 221.7 221.2 222.4ZM218.8 223.5Q219.5 223.5 219.9 223.1Q220.3 222.7 220.3 221.9V221.9Q220.3 221.1 219.9 220.7Q219.5 220.3 218.8 220.3Q218 220.3 217.6 220.7Q217.2 221.1 217.2 221.9V221.9Q217.2 222.7 217.6 223.1Q218 223.5 218.8 223.5Z"/></g></svg>
